<svg id="Layer_1" data-name="Layer 1" xmlns="http://www.w3.org/2000/svg" viewBox="0 0 21 16.8"><defs><style>.cls-1{fill:#fff;}</style></defs><path class="cls-1" d="M20.4,20.4H15.15c0-.35,0-.7,0-1s-.06-.7-.12-1.05H20.4V5.7H3.6V6.91c-.35-.06-.7-.09-1.05-.12s-.7,0-1,0v-1a2,2,0,0,1,.62-1.48A2,2,0,0,1,3.6,3.6H20.4a2,2,0,0,1,1.48.62A2,2,0,0,1,22.5,5.7V18.3a2.12,2.12,0,0,1-2.1,2.1Zm-18.9,0V17.25a3,3,0,0,1,2.23.92,3,3,0,0,1,.92,2.23Zm5.25,0a5,5,0,0,0-1.54-3.71A5,5,0,0,0,1.5,15.15v-2.1a7.08,7.08,0,0,1,5.21,2.14A7.08,7.08,0,0,1,8.85,20.4Zm4.2,0a9.15,9.15,0,0,0-.75-3.69,9.68,9.68,0,0,0-2-3,9.68,9.68,0,0,0-3-2A9.15,9.15,0,0,0,1.5,11V8.85A11.13,11.13,0,0,1,6,9.76a11.6,11.6,0,0,1,3.67,2.48,11.6,11.6,0,0,1,2.48,3.67,11.13,11.13,0,0,1,.91,4.49Z" transform="translate(-1.5 -3.6)"/></svg>