<svg width="36" height="35" viewBox="0 0 36 35" fill="none" xmlns="http://www.w3.org/2000/svg">
<path d="M18 13.5L12.375 7.875L13.95 6.24375L16.875 9.16875V0H19.125V9.16875L22.05 6.24375L23.625 7.875L18 13.5ZM11.25 18C10.6312 18 10.1016 17.7797 9.66094 17.3391C9.22031 16.8984 9 16.3687 9 15.75V12.375H11.25V15.75H24.75V12.375H27V15.75C27 16.3687 26.7797 16.8984 26.3391 17.3391C25.8984 17.7797 25.3687 18 24.75 18H11.25Z" fill="white"/>
<path d="M2.19922 33H1.01172L1.01953 32.3867H2.19922C2.60547 32.3867 2.94401 32.3021 3.21484 32.1328C3.48568 31.9609 3.6888 31.7214 3.82422 31.4141C3.96224 31.1042 4.03125 30.7422 4.03125 30.3281V29.9805C4.03125 29.6549 3.99219 29.3659 3.91406 29.1133C3.83594 28.8581 3.72135 28.6432 3.57031 28.4688C3.41927 28.2917 3.23438 28.1576 3.01562 28.0664C2.79948 27.9753 2.55078 27.9297 2.26953 27.9297H0.988281V27.3125H2.26953C2.64193 27.3125 2.98177 27.375 3.28906 27.5C3.59635 27.6224 3.86068 27.8008 4.08203 28.0352C4.30599 28.2669 4.47786 28.5482 4.59766 28.8789C4.71745 29.207 4.77734 29.5768 4.77734 29.9883V30.3281C4.77734 30.7396 4.71745 31.1107 4.59766 31.4414C4.47786 31.7695 4.30469 32.0495 4.07812 32.2812C3.85417 32.513 3.58333 32.6914 3.26562 32.8164C2.95052 32.9388 2.59505 33 2.19922 33ZM1.41406 27.3125V33H0.660156V27.3125H1.41406ZM5.60938 30.9336V30.8438C5.60938 30.5391 5.65365 30.2565 5.74219 29.9961C5.83073 29.7331 5.95833 29.5052 6.125 29.3125C6.29167 29.1172 6.49349 28.9661 6.73047 28.8594C6.96745 28.75 7.23307 28.6953 7.52734 28.6953C7.82422 28.6953 8.09115 28.75 8.32812 28.8594C8.56771 28.9661 8.77083 29.1172 8.9375 29.3125C9.10677 29.5052 9.23568 29.7331 9.32422 29.9961C9.41276 30.2565 9.45703 30.5391 9.45703 30.8438V30.9336C9.45703 31.2383 9.41276 31.5208 9.32422 31.7812C9.23568 32.0417 9.10677 32.2695 8.9375 32.4648C8.77083 32.6576 8.56901 32.8086 8.33203 32.918C8.09766 33.0247 7.83203 33.0781 7.53516 33.0781C7.23828 33.0781 6.97135 33.0247 6.73438 32.918C6.4974 32.8086 6.29427 32.6576 6.125 32.4648C5.95833 32.2695 5.83073 32.0417 5.74219 31.7812C5.65365 31.5208 5.60938 31.2383 5.60938 30.9336ZM6.33203 30.8438V30.9336C6.33203 31.1445 6.35677 31.3438 6.40625 31.5312C6.45573 31.7161 6.52995 31.8802 6.62891 32.0234C6.73047 32.1667 6.85677 32.2799 7.00781 32.3633C7.15885 32.444 7.33464 32.4844 7.53516 32.4844C7.73307 32.4844 7.90625 32.444 8.05469 32.3633C8.20573 32.2799 8.33073 32.1667 8.42969 32.0234C8.52865 31.8802 8.60286 31.7161 8.65234 31.5312C8.70443 31.3438 8.73047 31.1445 8.73047 30.9336V30.8438C8.73047 30.6354 8.70443 30.4388 8.65234 30.2539C8.60286 30.0664 8.52734 29.901 8.42578 29.7578C8.32682 29.612 8.20182 29.4974 8.05078 29.4141C7.90234 29.3307 7.72786 29.2891 7.52734 29.2891C7.32943 29.2891 7.15495 29.3307 7.00391 29.4141C6.85547 29.4974 6.73047 29.612 6.62891 29.7578C6.52995 29.901 6.45573 30.0664 6.40625 30.2539C6.35677 30.4388 6.33203 30.6354 6.33203 30.8438ZM11.4336 32.25L12.5195 28.7734H12.9961L12.9023 29.4648L11.7969 33H11.332L11.4336 32.25ZM10.7031 28.7734L11.6289 32.2891L11.6953 33H11.207L9.98047 28.7734H10.7031ZM14.0352 32.2617L14.918 28.7734H15.6367L14.4102 33H13.9258L14.0352 32.2617ZM13.1016 28.7734L14.1641 32.1914L14.2852 33H13.8242L12.6875 29.457L12.5938 28.7734H13.1016ZM17.1016 29.6758V33H16.3789V28.7734H17.0625L17.1016 29.6758ZM16.9297 30.7266L16.6289 30.7148C16.6315 30.4258 16.6745 30.1589 16.7578 29.9141C16.8411 29.6667 16.9583 29.4518 17.1094 29.2695C17.2604 29.0872 17.4401 28.9466 17.6484 28.8477C17.8594 28.7461 18.0924 28.6953 18.3477 28.6953C18.556 28.6953 18.7435 28.724 18.9102 28.7812C19.0768 28.8359 19.2188 28.9245 19.3359 29.0469C19.4557 29.1693 19.5469 29.3281 19.6094 29.5234C19.6719 29.7161 19.7031 29.9518 19.7031 30.2305V33H18.9766V30.2227C18.9766 30.0013 18.944 29.8242 18.8789 29.6914C18.8138 29.556 18.7188 29.4583 18.5938 29.3984C18.4688 29.3359 18.3151 29.3047 18.1328 29.3047C17.9531 29.3047 17.7891 29.3424 17.6406 29.418C17.4948 29.4935 17.3685 29.5977 17.2617 29.7305C17.1576 29.8633 17.0755 30.0156 17.0156 30.1875C16.9583 30.3568 16.9297 30.5365 16.9297 30.7266ZM21.5859 27V33H20.8594V27H21.5859ZM22.5547 30.9336V30.8438C22.5547 30.5391 22.599 30.2565 22.6875 29.9961C22.776 29.7331 22.9036 29.5052 23.0703 29.3125C23.237 29.1172 23.4388 28.9661 23.6758 28.8594C23.9128 28.75 24.1784 28.6953 24.4727 28.6953C24.7695 28.6953 25.0365 28.75 25.2734 28.8594C25.513 28.9661 25.7161 29.1172 25.8828 29.3125C26.0521 29.5052 26.181 29.7331 26.2695 29.9961C26.3581 30.2565 26.4023 30.5391 26.4023 30.8438V30.9336C26.4023 31.2383 26.3581 31.5208 26.2695 31.7812C26.181 32.0417 26.0521 32.2695 25.8828 32.4648C25.7161 32.6576 25.5143 32.8086 25.2773 32.918C25.043 33.0247 24.7773 33.0781 24.4805 33.0781C24.1836 33.0781 23.9167 33.0247 23.6797 32.918C23.4427 32.8086 23.2396 32.6576 23.0703 32.4648C22.9036 32.2695 22.776 32.0417 22.6875 31.7812C22.599 31.5208 22.5547 31.2383 22.5547 30.9336ZM23.2773 30.8438V30.9336C23.2773 31.1445 23.3021 31.3438 23.3516 31.5312C23.401 31.7161 23.4753 31.8802 23.5742 32.0234C23.6758 32.1667 23.8021 32.2799 23.9531 32.3633C24.1042 32.444 24.2799 32.4844 24.4805 32.4844C24.6784 32.4844 24.8516 32.444 25 32.3633C25.151 32.2799 25.276 32.1667 25.375 32.0234C25.474 31.8802 25.5482 31.7161 25.5977 31.5312C25.6497 31.3438 25.6758 31.1445 25.6758 30.9336V30.8438C25.6758 30.6354 25.6497 30.4388 25.5977 30.2539C25.5482 30.0664 25.4727 29.901 25.3711 29.7578C25.2721 29.612 25.1471 29.4974 24.9961 29.4141C24.8477 29.3307 24.6732 29.2891 24.4727 29.2891C24.2747 29.2891 24.1003 29.3307 23.9492 29.4141C23.8008 29.4974 23.6758 29.612 23.5742 29.7578C23.4753 29.901 23.401 30.0664 23.3516 30.2539C23.3021 30.4388 23.2773 30.6354 23.2773 30.8438ZM29.8008 32.2773V30.1016C29.8008 29.9349 29.7669 29.7904 29.6992 29.668C29.6341 29.543 29.5352 29.4466 29.4023 29.3789C29.2695 29.3112 29.1055 29.2773 28.9102 29.2773C28.7279 29.2773 28.5677 29.3086 28.4297 29.3711C28.2943 29.4336 28.1875 29.5156 28.1094 29.6172C28.0339 29.7188 27.9961 29.8281 27.9961 29.9453H27.2734C27.2734 29.7943 27.3125 29.6445 27.3906 29.4961C27.4688 29.3477 27.5807 29.2135 27.7266 29.0938C27.875 28.9714 28.0521 28.875 28.2578 28.8047C28.4661 28.7318 28.6979 28.6953 28.9531 28.6953C29.2604 28.6953 29.5312 28.7474 29.7656 28.8516C30.0026 28.9557 30.1875 29.1133 30.3203 29.3242C30.4557 29.5326 30.5234 29.7943 30.5234 30.1094V32.0781C30.5234 32.2188 30.5352 32.3685 30.5586 32.5273C30.5846 32.6862 30.6224 32.8229 30.6719 32.9375V33H29.918C29.8815 32.9167 29.8529 32.806 29.832 32.668C29.8112 32.5273 29.8008 32.3971 29.8008 32.2773ZM29.9258 30.4375L29.9336 30.9453H29.2031C28.9974 30.9453 28.8138 30.9622 28.6523 30.9961C28.4909 31.0273 28.3555 31.0755 28.2461 31.1406C28.1367 31.2057 28.0534 31.2878 27.9961 31.3867C27.9388 31.4831 27.9102 31.5964 27.9102 31.7266C27.9102 31.8594 27.9401 31.9805 28 32.0898C28.0599 32.1992 28.1497 32.2865 28.2695 32.3516C28.3919 32.4141 28.5417 32.4453 28.7188 32.4453C28.9401 32.4453 29.1354 32.3984 29.3047 32.3047C29.474 32.2109 29.6081 32.0964 29.707 31.9609C29.8086 31.8255 29.8633 31.694 29.8711 31.5664L30.1797 31.9141C30.1615 32.0234 30.112 32.1445 30.0312 32.2773C29.9505 32.4102 29.8424 32.5378 29.707 32.6602C29.5742 32.7799 29.4154 32.8802 29.2305 32.9609C29.0482 33.0391 28.8424 33.0781 28.6133 33.0781C28.3268 33.0781 28.0755 33.0221 27.8594 32.9102C27.6458 32.7982 27.4792 32.6484 27.3594 32.4609C27.2422 32.2708 27.1836 32.0586 27.1836 31.8242C27.1836 31.5977 27.2279 31.3984 27.3164 31.2266C27.4049 31.0521 27.5326 30.9076 27.6992 30.793C27.8659 30.6758 28.0664 30.5872 28.3008 30.5273C28.5352 30.4674 28.7969 30.4375 29.0859 30.4375H29.9258ZM34.3242 32.1797V27H35.0508V33H34.3867L34.3242 32.1797ZM31.4805 30.9336V30.8516C31.4805 30.5286 31.5195 30.2357 31.5977 29.9727C31.6784 29.707 31.7917 29.4792 31.9375 29.2891C32.0859 29.099 32.2617 28.9531 32.4648 28.8516C32.6706 28.7474 32.8997 28.6953 33.1523 28.6953C33.418 28.6953 33.6497 28.7422 33.8477 28.8359C34.0482 28.9271 34.2174 29.0612 34.3555 29.2383C34.4961 29.4128 34.6068 29.6237 34.6875 29.8711C34.7682 30.1185 34.8242 30.3984 34.8555 30.7109V31.0703C34.8268 31.3802 34.7708 31.6589 34.6875 31.9062C34.6068 32.1536 34.4961 32.3646 34.3555 32.5391C34.2174 32.7135 34.0482 32.8477 33.8477 32.9414C33.6471 33.0326 33.4128 33.0781 33.1445 33.0781C32.8971 33.0781 32.6706 33.0247 32.4648 32.918C32.2617 32.8112 32.0859 32.6615 31.9375 32.4688C31.7917 32.276 31.6784 32.0495 31.5977 31.7891C31.5195 31.526 31.4805 31.2409 31.4805 30.9336ZM32.207 30.8516V30.9336C32.207 31.1445 32.2279 31.3424 32.2695 31.5273C32.3138 31.7122 32.3815 31.875 32.4727 32.0156C32.5638 32.1562 32.6797 32.2669 32.8203 32.3477C32.9609 32.4258 33.1289 32.4648 33.3242 32.4648C33.5638 32.4648 33.7604 32.4141 33.9141 32.3125C34.0703 32.2109 34.1953 32.0768 34.2891 31.9102C34.3828 31.7435 34.4557 31.5625 34.5078 31.3672V30.4258C34.4766 30.2826 34.431 30.1445 34.3711 30.0117C34.3138 29.8763 34.2383 29.7565 34.1445 29.6523C34.0534 29.5456 33.9401 29.4609 33.8047 29.3984C33.6719 29.3359 33.5143 29.3047 33.332 29.3047C33.1341 29.3047 32.9635 29.3464 32.8203 29.4297C32.6797 29.5104 32.5638 29.6224 32.4727 29.7656C32.3815 29.9062 32.3138 30.0703 32.2695 30.2578C32.2279 30.4427 32.207 30.6406 32.207 30.8516Z" fill="#F9F9F9"/>
</svg>
