<?xml version="1.0" encoding="utf-8"?>
<!-- Generator: Adobe Illustrator 24.3.0, SVG Export Plug-In . SVG Version: 6.00 Build 0)  -->
<svg version="1.1" id="Layer_1" xmlns="http://www.w3.org/2000/svg" xmlns:xlink="http://www.w3.org/1999/xlink" x="0px" y="0px"
	 viewBox="0 0 108.64 17.51" style="enable-background:new 0 0 108.64 17.51;" xml:space="preserve">
<style type="text/css">
	.st0{fill:#FFFFFF;}
	.st1{fill:#1F2655;}
</style>
<g>
	<g>
		<path class="st0" d="M9.95,11.21c0-0.29-0.04-0.55-0.13-0.77C9.74,10.21,9.59,10,9.37,9.82C9.16,9.64,8.86,9.46,8.48,9.3
			C8.11,9.13,7.64,8.96,7.06,8.79C6.46,8.61,5.92,8.4,5.43,8.18C4.95,7.95,4.53,7.69,4.19,7.4c-0.35-0.29-0.61-0.63-0.79-1
			C3.21,6.02,3.12,5.59,3.12,5.1s0.1-0.93,0.29-1.35c0.19-0.41,0.47-0.77,0.84-1.07c0.37-0.31,0.81-0.55,1.31-0.72
			c0.51-0.17,1.07-0.26,1.7-0.26c0.91,0,1.69,0.18,2.32,0.54c0.64,0.35,1.13,0.82,1.46,1.4c0.33,0.57,0.5,1.18,0.5,1.83h-1.6
			c0-0.47-0.1-0.88-0.29-1.24C9.45,3.87,9.15,3.59,8.76,3.38c-0.4-0.21-0.9-0.32-1.5-0.32c-0.57,0-1.05,0.09-1.42,0.27
			C5.46,3.51,5.18,3.75,5,4.05C4.82,4.35,4.73,4.7,4.73,5.09c0,0.26,0.05,0.5,0.16,0.72C5,6.02,5.17,6.22,5.4,6.4
			C5.63,6.58,5.93,6.75,6.29,6.9c0.36,0.15,0.79,0.3,1.3,0.45c0.69,0.2,1.29,0.42,1.79,0.67c0.5,0.25,0.91,0.52,1.24,0.83
			c0.33,0.3,0.57,0.65,0.73,1.04c0.16,0.38,0.24,0.82,0.24,1.3c0,0.51-0.1,0.97-0.3,1.38c-0.2,0.41-0.49,0.76-0.86,1.05
			c-0.37,0.29-0.82,0.52-1.35,0.68c-0.52,0.15-1.1,0.23-1.74,0.23c-0.56,0-1.12-0.08-1.66-0.24c-0.54-0.16-1.03-0.4-1.48-0.72
			c-0.44-0.32-0.79-0.71-1.06-1.18c-0.26-0.47-0.39-1.02-0.39-1.65h1.6c0,0.43,0.08,0.8,0.24,1.11c0.16,0.3,0.38,0.55,0.66,0.75
			c0.28,0.2,0.6,0.35,0.96,0.45c0.36,0.09,0.74,0.14,1.13,0.14c0.56,0,1.04-0.08,1.43-0.24c0.39-0.16,0.69-0.39,0.89-0.69
			C9.85,11.96,9.95,11.61,9.95,11.21z"/>
		<path class="st0" d="M18.13,1.88v12.48h-1.59V1.88H18.13z M22.04,1.88v1.35h-9.4V1.88H22.04z"/>
		<path class="st0" d="M23.84,1.88h4.03c0.91,0,1.69,0.14,2.31,0.43c0.64,0.29,1.12,0.71,1.45,1.27c0.33,0.55,0.5,1.24,0.5,2.05
			c0,0.57-0.11,1.09-0.34,1.57c-0.22,0.47-0.55,0.87-0.97,1.2c-0.42,0.33-0.92,0.57-1.5,0.73L28.87,9.3h-3.79l-0.02-1.35h2.86
			c0.58,0,1.06-0.1,1.45-0.31c0.38-0.21,0.67-0.49,0.87-0.85c0.2-0.35,0.29-0.75,0.29-1.17c0-0.48-0.09-0.9-0.28-1.26
			c-0.18-0.36-0.47-0.64-0.87-0.83c-0.39-0.2-0.89-0.3-1.51-0.3h-2.42v11.12h-1.61V1.88z M30.95,14.36L28,8.7l1.68-0.01l3,5.56v0.1
			H30.95z"/>
		<path class="st0" d="M42.12,13.01v1.35h-6.44v-1.35H42.12z M36,1.88v12.48h-1.61V1.88H36z M41.27,7.25v1.35h-5.59V7.25H41.27z
			 M42.04,1.88v1.35h-6.36V1.88H42.04z"/>
		<path class="st0" d="M48.62,2.99l-4.03,11.37h-1.65l4.64-12.48h1.06L48.62,2.99z M52,14.36L47.96,2.99l-0.03-1.11H49l4.65,12.48
			H52z M51.79,9.74v1.35h-6.84V9.74H51.79z"/>
		<path class="st0" d="M55.79,1.88h1.56l3.99,10.17l3.98-10.17h1.57l-4.95,12.48h-1.22L55.79,1.88z M55.28,1.88h1.38l0.23,7.61v4.87
			h-1.6V1.88z M66.01,1.88h1.38v12.48h-1.6V9.49L66.01,1.88z"/>
		<path class="st0" d="M78.81,8.52h-3.08L75.71,7.2h2.8c0.46,0,0.87-0.08,1.21-0.24c0.35-0.16,0.61-0.39,0.8-0.69
			c0.2-0.3,0.29-0.66,0.29-1.08c0-0.46-0.09-0.83-0.26-1.11c-0.17-0.29-0.43-0.5-0.78-0.63c-0.35-0.14-0.79-0.21-1.32-0.21h-2.37
			v11.12h-1.61V1.88h3.99c0.62,0,1.18,0.07,1.67,0.2c0.49,0.13,0.91,0.33,1.25,0.6c0.35,0.27,0.61,0.61,0.79,1.03
			c0.18,0.42,0.27,0.92,0.27,1.5c0,0.51-0.13,0.98-0.38,1.4c-0.26,0.41-0.61,0.75-1.07,1.01c-0.45,0.26-0.98,0.43-1.59,0.51
			L78.81,8.52z M78.73,14.36h-3.64L76,13.01h2.73c0.51,0,0.95-0.09,1.3-0.27c0.36-0.18,0.64-0.44,0.83-0.77
			c0.19-0.34,0.28-0.73,0.28-1.19c0-0.46-0.08-0.86-0.24-1.2c-0.16-0.34-0.41-0.6-0.76-0.78c-0.35-0.18-0.79-0.27-1.34-0.27h-2.3
			l0.02-1.33h3.14l0.34,0.48c0.59,0.05,1.08,0.22,1.49,0.51c0.41,0.29,0.72,0.65,0.93,1.1c0.22,0.45,0.33,0.94,0.33,1.47
			c0,0.78-0.17,1.43-0.5,1.97c-0.33,0.53-0.79,0.94-1.4,1.22C80.25,14.22,79.54,14.36,78.73,14.36z"/>
		<path class="st0" d="M98.91,1.88l2.92,4.78l2.92-4.78h1.88l-3.84,6.18l3.94,6.3h-1.9l-3-4.88l-3,4.88h-1.9l3.94-6.3l-3.84-6.18
			H98.91z"/>
	</g>
	<g>
		<path class="st0" d="M90.26,14.26c4.36-0.33,7.76-1.95,6.49-5.59c-1.02-2.91-2.9-6.71-6.49-6.71c-3.58,0-6.15,3.64-6.49,6.71
			C83.35,12.61,86.22,14.57,90.26,14.26z"/>
		<path class="st1" d="M93.24,8.73l-4.72-2.8l0,0v5.6l0,0L93.24,8.73C93.24,8.73,93.24,8.73,93.24,8.73z"/>
		<g>
			<path class="st1" d="M90.28,13.5c1.46-0.14,2.95-0.37,4.25-1.09c0.63-0.36,1.2-0.89,1.46-1.57c0.27-0.68,0.2-1.45-0.05-2.13
				c-0.48-1.38-1.09-2.75-1.99-3.9c-0.88-1.16-2.21-2.03-3.68-1.99c-1.46,0-2.82,0.78-3.76,1.88c-0.95,1.09-1.6,2.46-1.78,3.9
				c-0.2,1.41,0.18,3.01,1.39,3.89C87.27,13.36,88.82,13.58,90.28,13.5z M90.28,13.52c-1.46,0.12-3.03-0.05-4.26-0.94
				c-0.61-0.44-1.08-1.07-1.32-1.79c-0.25-0.71-0.3-1.49-0.23-2.23c0.19-1.5,0.85-2.91,1.84-4.04c0.99-1.12,2.42-1.93,3.95-1.91
				c0.76,0,1.51,0.2,2.16,0.58c0.65,0.38,1.2,0.92,1.65,1.5c0.91,1.19,1.51,2.56,1.98,3.96c0.24,0.7,0.3,1.5,0.01,2.2
				c-0.28,0.7-0.87,1.23-1.51,1.59C93.24,13.16,91.74,13.39,90.28,13.52z"/>
		</g>
		<circle class="st1" cx="96.01" cy="8.81" r="0.35"/>
		<circle class="st1" cx="90.21" cy="13.49" r="0.35"/>
		<circle class="st1" cx="85.42" cy="6.1" r="0.35"/>
	</g>
</g>
</svg>
