<svg width="52" height="49" viewBox="0 0 52 49" fill="none" xmlns="http://www.w3.org/2000/svg">
<path d="M25.5497 48.1645C42.603 46.8638 55.9449 40.515 50.9328 26.2661C46.923 14.8575 39.5719 0 25.5497 0C11.5276 0 1.47939 14.2489 0.16668 26.2661C-1.51597 41.6964 9.72562 49.3698 25.5497 48.1645Z" fill="#1D2656"/>
<path d="M37.185 26.5168L18.6877 15.5736H18.6758V37.4719H18.6877L37.185 26.5287C37.1969 26.5287 37.185 26.5168 37.185 26.5168Z" fill="#FCEE21"/>
<path d="M25.6094 45.2049C28.4854 44.9663 31.3495 44.5724 34.1659 43.928C36.9703 43.2836 39.7509 42.3766 42.257 40.9446C44.7511 39.5364 46.9827 37.46 48.0329 34.7749C49.1189 32.0898 48.8563 29.0467 47.9135 26.3497C46.0399 20.9079 43.6651 15.5496 40.1328 10.9909C38.3546 8.73547 36.2543 6.69481 33.7601 5.25082C31.2779 3.80684 28.4138 3.05505 25.5378 3.07891C22.6618 3.07891 19.8096 3.83072 17.2558 5.14343C14.702 6.45614 12.4465 8.30589 10.5371 10.4659C6.75412 14.7859 4.20031 20.2277 3.49622 25.92C3.18595 28.7722 3.30529 31.696 4.21225 34.4288C4.39126 35.121 4.76121 35.7534 5.03568 36.4098C5.35789 37.0542 5.77555 37.639 6.13357 38.2595C6.59898 38.8085 7.01668 39.3932 7.52983 39.8944C8.07878 40.3598 8.54418 40.9207 9.1528 41.3145C11.4441 43.0569 14.1888 44.1309 17.0052 44.7157C19.8216 45.2885 22.7334 45.3959 25.6094 45.2049ZM25.6094 45.2407C22.7334 45.4556 19.8096 45.3601 16.9813 44.7992C14.153 44.2383 11.3844 43.1762 9.05734 41.4339C8.44872 41.0401 7.95943 40.4792 7.41048 40.0138C6.89733 39.5006 6.46772 38.9159 5.99037 38.3669C5.62042 37.7464 5.19079 37.1497 4.85665 36.5053C4.58217 35.837 4.2003 35.2045 4.00936 34.5004C3.0666 31.7437 2.91148 28.7722 3.20982 25.8842C3.93778 20.1083 6.51544 14.6307 10.3462 10.2869C12.2675 8.11492 14.5588 6.25326 17.1484 4.91668C19.738 3.59204 22.626 2.84023 25.5378 2.84023C28.4496 2.82829 31.3615 3.59204 33.8676 5.07183C36.3856 6.53967 38.4978 8.6042 40.276 10.8835C43.8203 15.478 46.1831 20.8602 48.0567 26.3139C48.9995 29.0348 49.262 32.1136 48.1522 34.8345C47.0782 37.5554 44.8227 39.6438 42.3047 41.0401C39.7747 42.4602 36.9942 43.3552 34.1778 43.9996C31.3615 44.6202 28.4854 45.0021 25.6094 45.2407Z" fill="#FFF200"/>
<path d="M48.0208 28.2231C48.7853 28.2231 49.4051 27.6033 49.4051 26.8388C49.4051 26.0743 48.7853 25.4545 48.0208 25.4545C47.2563 25.4545 46.6365 26.0743 46.6365 26.8388C46.6365 27.6033 47.2563 28.2231 48.0208 28.2231Z" fill="#00AEEF"/>
<path d="M25.3589 46.5296C26.1235 46.5296 26.7432 45.9098 26.7432 45.1453C26.7432 44.3807 26.1235 43.761 25.3589 43.761C24.5944 43.761 23.9746 44.3807 23.9746 45.1453C23.9746 45.9098 24.5944 46.5296 25.3589 46.5296Z" fill="#00AEEF"/>
<path d="M6.58695 17.6023C7.35149 17.6023 7.97127 16.9825 7.97127 16.218C7.97127 15.4535 7.35149 14.8337 6.58695 14.8337C5.82242 14.8337 5.20264 15.4535 5.20264 16.218C5.20264 16.9825 5.82242 17.6023 6.58695 17.6023Z" fill="#00AEEF"/>
</svg>
