<svg width="18" height="15" viewBox="0 0 18 15" fill="none" xmlns="http://www.w3.org/2000/svg">
<path d="M1.8 0L3.6 3.6H6.3L4.5 0H6.3L8.1 3.6H10.8L9 0H10.8L12.6 3.6H15.3L13.5 0H16.2C16.695 0 17.1187 0.17625 17.4713 0.52875C17.8238 0.88125 18 1.305 18 1.8V12.6C18 13.095 17.8238 13.5187 17.4713 13.8712C17.1187 14.2237 16.695 14.4 16.2 14.4H1.8C1.305 14.4 0.88125 14.2237 0.52875 13.8712C0.17625 13.5187 0 13.095 0 12.6V1.8C0 1.305 0.17625 0.88125 0.52875 0.52875C0.88125 0.17625 1.305 0 1.8 0Z" fill="white"/>
</svg>
