<svg id="Layer_1" data-name="Layer 1" xmlns="http://www.w3.org/2000/svg" viewBox="0 0 21 21"><defs><style>.cls-1{fill:#fff;}</style></defs><path class="cls-1" d="M20.87,22.5l-7.35-7.35a6.93,6.93,0,0,1-2,1.11,7.11,7.11,0,0,1-2.42.41A7.32,7.32,0,0,1,3.7,14.46,7.29,7.29,0,0,1,1.5,9.08,7.31,7.31,0,0,1,3.7,3.7,7.31,7.31,0,0,1,9.08,1.5a7.29,7.29,0,0,1,5.38,2.2,7.32,7.32,0,0,1,2.21,5.38,7.11,7.11,0,0,1-.41,2.42,6.93,6.93,0,0,1-1.11,2l7.35,7.35ZM9.08,14.33A5.06,5.06,0,0,0,12.8,12.8a5.06,5.06,0,0,0,1.53-3.72A5.08,5.08,0,0,0,12.8,5.36,5.06,5.06,0,0,0,9.08,3.83,5.1,5.1,0,0,0,5.36,5.36,5.08,5.08,0,0,0,3.83,9.08,5.06,5.06,0,0,0,5.36,12.8,5.1,5.1,0,0,0,9.08,14.33Z" transform="translate(-1.5 -1.5)"/></svg>