<svg width="19" height="16" viewBox="0 0 19 16" fill="none" xmlns="http://www.w3.org/2000/svg">
<path d="M7.65 9.375L1.725 15.3C1.525 15.5 1.2875 15.6 1.0125 15.6C0.7375 15.6 0.5 15.5 0.3 15.3C0.0999999 15.1 0 14.8625 0 14.5875C0 14.3125 0.0999999 14.075 0.3 13.875L9.2 5H6.6V6C6.6 6.28333 6.50417 6.52083 6.3125 6.7125C6.12083 6.90417 5.88333 7 5.6 7C5.31667 7 5.07917 6.90417 4.8875 6.7125C4.69583 6.52083 4.6 6.28333 4.6 6V4C4.6 3.71667 4.69583 3.47917 4.8875 3.2875C5.07917 3.09583 5.31667 3 5.6 3H10.45C10.7167 3 10.9708 3.05 11.2125 3.15C11.4542 3.25 11.6667 3.39167 11.85 3.575L14.85 6.55C15.1833 6.88333 15.5708 7.1625 16.0125 7.3875C16.4542 7.6125 16.9333 7.775 17.45 7.875C17.7333 7.925 17.9792 8.05417 18.1875 8.2625C18.3958 8.47083 18.5 8.71667 18.5 9C18.5 9.28333 18.3833 9.51667 18.15 9.7C17.9167 9.88333 17.6583 9.95833 17.375 9.925C16.625 9.825 15.9333 9.625 15.3 9.325C14.6667 9.025 14.0833 8.61667 13.55 8.1L12.55 7.05L10.35 9.25L11.675 10.575C11.9083 10.8083 12.0042 11.0875 11.9625 11.4125C11.9208 11.7375 11.7583 11.9833 11.475 12.15L6.925 14.775C6.69167 14.9083 6.4375 14.9417 6.1625 14.875C5.8875 14.8083 5.68333 14.6583 5.55 14.425C5.41667 14.1917 5.3875 13.9375 5.4625 13.6625C5.5375 13.3875 5.69167 13.1833 5.925 13.05L9.35 11.075L7.65 9.375ZM15.075 4C14.525 4 14.05 3.80417 13.65 3.4125C13.25 3.02083 13.05 2.55 13.05 2C13.05 1.45 13.25 0.979167 13.65 0.5875C14.05 0.195833 14.525 0 15.075 0C15.625 0 16.1 0.195833 16.5 0.5875C16.9 0.979167 17.1 1.45 17.1 2C17.1 2.55 16.9 3.02083 16.5 3.4125C16.1 3.80417 15.625 4 15.075 4Z" fill="white"/>
</svg>
