<svg width="18" height="19" viewBox="0 0 18 19" fill="none" xmlns="http://www.w3.org/2000/svg">
<path d="M14.6657 17.0593H3.33431C1.4926 17.0593 0 15.5667 0 13.725V7.93657C0 6.09487 1.4926 4.60226 3.33431 4.60226H14.6657C16.5074 4.60226 18 6.09487 18 7.93657V13.725C18 15.5662 16.5069 17.0593 14.6657 17.0593Z" fill="white"/>
<path d="M13.2416 18.9025H4.75851C4.56611 18.9025 4.4104 18.7468 4.4104 18.5544C4.4104 18.362 4.56611 18.2063 4.75851 18.2063H13.2411C13.4335 18.2063 13.5892 18.362 13.5892 18.5544C13.5897 18.7468 13.4335 18.9025 13.2416 18.9025Z" fill="white"/>
<path d="M11.7895 1.86005L10.1273 3.52225L10.1213 3.5282C10.0023 3.6477 9.85109 3.71465 9.69539 3.73101C9.67506 3.7325 9.65423 3.73349 9.6339 3.73349C9.4534 3.73349 9.2729 3.66506 9.13554 3.5272L9.13058 3.52225L6.20984 0.601504C6.07198 0.464145 6.07198 0.240998 6.20984 0.103143C6.27876 0.0342159 6.36852 0 6.45877 0C6.54902 0 6.63927 0.0342159 6.7082 0.103143L9.62894 3.02388L11.2911 1.36169C11.3601 1.29276 11.4503 1.25805 11.5406 1.25805C11.6308 1.25805 11.7206 1.29276 11.7895 1.36169C11.9273 1.49905 11.9273 1.7222 11.7895 1.86005Z" fill="white"/>
</svg>
