<svg width="34" height="28" viewBox="0 0 34 28" fill="none" xmlns="http://www.w3.org/2000/svg">
<path d="M30.6 28H22.1C22.1 27.4167 22.0788 26.8333 22.0363 26.25C21.9937 25.6667 21.93 25.0833 21.845 24.5H30.6V3.5H3.4V5.5125C2.83333 5.425 2.26667 5.35938 1.7 5.31562C1.13333 5.27187 0.566667 5.25 0 5.25V3.5C0 2.5375 0.332917 1.71354 0.99875 1.02812C1.66458 0.342708 2.465 0 3.4 0H30.6C31.535 0 32.3354 0.342708 33.0013 1.02812C33.6671 1.71354 34 2.5375 34 3.5V24.5C34 25.4625 33.6671 26.2865 33.0013 26.9719C32.3354 27.6573 31.535 28 30.6 28ZM0 28V22.75C1.41667 22.75 2.62083 23.2604 3.6125 24.2812C4.60417 25.3021 5.1 26.5417 5.1 28H0ZM8.5 28C8.5 25.5792 7.67125 23.5156 6.01375 21.8094C4.35625 20.1031 2.35167 19.25 0 19.25V15.75C3.315 15.75 6.12708 16.9385 8.43625 19.3156C10.7454 21.6927 11.9 24.5875 11.9 28H8.5ZM15.3 28C15.3 25.8125 14.8962 23.7635 14.0887 21.8531C13.2812 19.9427 12.1904 18.2802 10.8162 16.8656C9.44208 15.451 7.82708 14.3281 5.97125 13.4969C4.11542 12.6656 2.125 12.25 0 12.25V8.75C2.57833 8.75 5.00083 9.25313 7.2675 10.2594C9.53417 11.2656 11.5175 12.6438 13.2175 14.3938C14.9175 16.1437 16.2563 18.1854 17.2337 20.5187C18.2113 22.8521 18.7 25.3458 18.7 28H15.3Z" fill="white"/>
</svg>
