<svg width="44" height="50" viewBox="0 0 44 50" fill="none" xmlns="http://www.w3.org/2000/svg">
<path d="M8.75 39.4844V40.7109H2.59375V39.4844H8.75ZM2.82812 34.5938V45.9688H1.32031V34.5938H2.82812ZM10.0625 34.5938V45.9688H8.5625V34.5938H10.0625ZM12.1406 41.8359V41.6562C12.1406 41.0469 12.2292 40.4818 12.4062 39.9609C12.5833 39.4349 12.8385 38.9792 13.1719 38.5938C13.5052 38.2031 13.9089 37.901 14.3828 37.6875C14.8568 37.4688 15.388 37.3594 15.9766 37.3594C16.5703 37.3594 17.1042 37.4688 17.5781 37.6875C18.0573 37.901 18.4635 38.2031 18.7969 38.5938C19.1354 38.9792 19.3932 39.4349 19.5703 39.9609C19.7474 40.4818 19.8359 41.0469 19.8359 41.6562V41.8359C19.8359 42.4453 19.7474 43.0104 19.5703 43.5312C19.3932 44.0521 19.1354 44.5078 18.7969 44.8984C18.4635 45.2839 18.0599 45.5859 17.5859 45.8047C17.1172 46.0182 16.5859 46.125 15.9922 46.125C15.3984 46.125 14.8646 46.0182 14.3906 45.8047C13.9167 45.5859 13.5104 45.2839 13.1719 44.8984C12.8385 44.5078 12.5833 44.0521 12.4062 43.5312C12.2292 43.0104 12.1406 42.4453 12.1406 41.8359ZM13.5859 41.6562V41.8359C13.5859 42.2578 13.6354 42.6562 13.7344 43.0312C13.8333 43.401 13.9818 43.7292 14.1797 44.0156C14.3828 44.3021 14.6354 44.5286 14.9375 44.6953C15.2396 44.8568 15.5911 44.9375 15.9922 44.9375C16.388 44.9375 16.7344 44.8568 17.0312 44.6953C17.3333 44.5286 17.5833 44.3021 17.7812 44.0156C17.9792 43.7292 18.1276 43.401 18.2266 43.0312C18.3307 42.6562 18.3828 42.2578 18.3828 41.8359V41.6562C18.3828 41.2396 18.3307 40.8464 18.2266 40.4766C18.1276 40.1016 17.9766 39.7708 17.7734 39.4844C17.5755 39.1927 17.3255 38.9635 17.0234 38.7969C16.7266 38.6302 16.3776 38.5469 15.9766 38.5469C15.5807 38.5469 15.2318 38.6302 14.9297 38.7969C14.6328 38.9635 14.3828 39.1927 14.1797 39.4844C13.9818 39.7708 13.8333 40.1016 13.7344 40.4766C13.6354 40.8464 13.5859 41.2396 13.5859 41.6562ZM23.0859 39.1953V45.9688H21.6328V37.5156H23.0078L23.0859 39.1953ZM22.7891 41.4219L22.1172 41.3984C22.1224 40.8203 22.1979 40.2865 22.3438 39.7969C22.4896 39.3021 22.7057 38.8724 22.9922 38.5078C23.2786 38.1432 23.6354 37.862 24.0625 37.6641C24.4896 37.4609 24.9844 37.3594 25.5469 37.3594C25.9427 37.3594 26.3073 37.4167 26.6406 37.5312C26.974 37.6406 27.263 37.8151 27.5078 38.0547C27.7526 38.2943 27.9427 38.6016 28.0781 38.9766C28.2135 39.3516 28.2812 39.8047 28.2812 40.3359V45.9688H26.8359V40.4062C26.8359 39.9635 26.7604 39.6094 26.6094 39.3438C26.4635 39.0781 26.2552 38.8854 25.9844 38.7656C25.7135 38.6406 25.3958 38.5781 25.0312 38.5781C24.6042 38.5781 24.2474 38.6536 23.9609 38.8047C23.6745 38.9557 23.4453 39.1641 23.2734 39.4297C23.1016 39.6953 22.9766 40 22.8984 40.3438C22.8255 40.6823 22.7891 41.0417 22.7891 41.4219ZM28.2656 40.625L27.2969 40.9219C27.3021 40.4583 27.3776 40.013 27.5234 39.5859C27.6745 39.1589 27.8906 38.7786 28.1719 38.4453C28.4583 38.112 28.8099 37.849 29.2266 37.6562C29.6432 37.4583 30.1198 37.3594 30.6562 37.3594C31.1094 37.3594 31.5104 37.4193 31.8594 37.5391C32.2135 37.6589 32.5104 37.8438 32.75 38.0938C32.9948 38.3385 33.1797 38.6536 33.3047 39.0391C33.4297 39.4245 33.4922 39.8828 33.4922 40.4141V45.9688H32.0391V40.3984C32.0391 39.9245 31.9635 39.5573 31.8125 39.2969C31.6667 39.0312 31.4583 38.8464 31.1875 38.7422C30.9219 38.6328 30.6042 38.5781 30.2344 38.5781C29.9167 38.5781 29.6354 38.6328 29.3906 38.7422C29.1458 38.8516 28.9401 39.0026 28.7734 39.1953C28.6068 39.3828 28.4792 39.599 28.3906 39.8438C28.3073 40.0885 28.2656 40.349 28.2656 40.625ZM39.1875 46.125C38.599 46.125 38.0651 46.026 37.5859 45.8281C37.112 45.625 36.7031 45.3411 36.3594 44.9766C36.0208 44.612 35.7604 44.1797 35.5781 43.6797C35.3958 43.1797 35.3047 42.6328 35.3047 42.0391V41.7109C35.3047 41.0234 35.4062 40.4115 35.6094 39.875C35.8125 39.3333 36.0885 38.875 36.4375 38.5C36.7865 38.125 37.1823 37.8411 37.625 37.6484C38.0677 37.4557 38.526 37.3594 39 37.3594C39.6042 37.3594 40.125 37.4635 40.5625 37.6719C41.0052 37.8802 41.3672 38.1719 41.6484 38.5469C41.9297 38.9167 42.138 39.3542 42.2734 39.8594C42.4089 40.3594 42.4766 40.9062 42.4766 41.5V42.1484H36.1641V40.9688H41.0312V40.8594C41.0104 40.4844 40.9323 40.1198 40.7969 39.7656C40.6667 39.4115 40.4583 39.1198 40.1719 38.8906C39.8854 38.6615 39.4948 38.5469 39 38.5469C38.6719 38.5469 38.3698 38.6172 38.0938 38.7578C37.8177 38.8932 37.5807 39.0964 37.3828 39.3672C37.1849 39.638 37.0312 39.9688 36.9219 40.3594C36.8125 40.75 36.7578 41.2005 36.7578 41.7109V42.0391C36.7578 42.4401 36.8125 42.8177 36.9219 43.1719C37.0365 43.5208 37.2005 43.8281 37.4141 44.0938C37.6328 44.3594 37.8958 44.5677 38.2031 44.7188C38.5156 44.8698 38.8698 44.9453 39.2656 44.9453C39.776 44.9453 40.2083 44.8411 40.5625 44.6328C40.9167 44.4245 41.2266 44.1458 41.4922 43.7969L42.3672 44.4922C42.1849 44.7682 41.9531 45.0312 41.6719 45.2812C41.3906 45.5312 41.0443 45.7344 40.6328 45.8906C40.2266 46.0469 39.7448 46.125 39.1875 46.125Z" fill="white"/>
<path d="M12 20.3438V8.53125C12 8.11562 12.093 7.72187 12.2789 7.35C12.4648 6.97812 12.7219 6.67187 13.05 6.43125L20.925 0.525C21.3844 0.175 21.9094 0 22.5 0C23.0906 0 23.6156 0.175 24.075 0.525L31.95 6.43125C32.2781 6.67187 32.5352 6.97812 32.7211 7.35C32.907 7.72187 33 8.11562 33 8.53125V20.3438C33 21.0656 32.743 21.6836 32.2289 22.1977C31.7148 22.7117 31.0969 22.9687 30.375 22.9687H26.4375C26.0656 22.9687 25.7539 22.843 25.5023 22.5914C25.2508 22.3398 25.125 22.0281 25.125 21.6562V15.0937C25.125 14.7219 24.9992 14.4102 24.7477 14.1586C24.4961 13.907 24.1844 13.7812 23.8125 13.7812H21.1875C20.8156 13.7812 20.5039 13.907 20.2523 14.1586C20.0008 14.4102 19.875 14.7219 19.875 15.0937V21.6562C19.875 22.0281 19.7492 22.3398 19.4977 22.5914C19.2461 22.843 18.9344 22.9687 18.5625 22.9687H14.625C13.9031 22.9687 13.2852 22.7117 12.7711 22.1977C12.257 21.6836 12 21.0656 12 20.3438Z" fill="white"/>
</svg>
