<svg width="173" height="22" viewBox="0 0 173 22" fill="none" xmlns="http://www.w3.org/2000/svg">
<path d="M12.0054 15.7735C12.0054 15.2871 11.9293 14.8614 11.7822 14.4915C11.6453 14.1115 11.3917 13.772 11.0316 13.468C10.6816 13.164 10.1896 12.8752 9.55562 12.6016C8.93684 12.328 8.14561 12.0442 7.19207 11.7605C6.19289 11.4564 5.28501 11.122 4.48364 10.7471C3.67719 10.367 2.9874 9.93634 2.41427 9.44991C1.84113 8.96348 1.39987 8.41118 1.09555 7.78287C0.791228 7.15457 0.639071 6.44013 0.639071 5.63448C0.639071 4.82883 0.801378 4.08398 1.12599 3.39994C1.45059 2.7159 1.91214 2.12306 2.5157 1.62142C3.12941 1.10966 3.85471 0.709375 4.69666 0.425624C5.53861 0.141874 6.482 0 7.51668 0C9.03828 0 10.3266 0.298946 11.3815 0.89685C12.4466 1.48462 13.2582 2.25986 13.8161 3.21752C14.374 4.16504 14.6479 5.18352 14.6479 6.26785H11.98C11.98 5.48754 11.8177 4.79842 11.4931 4.20051C11.1685 3.59248 10.6765 3.11618 10.0172 2.77669C9.35782 2.42707 8.52601 2.24974 7.51668 2.24974C6.56315 2.24974 5.77192 2.39668 5.15313 2.69056C4.53435 2.98445 4.06773 3.38473 3.76342 3.88636C3.46924 4.388 3.31708 4.96563 3.31708 5.60913C3.31708 6.04489 3.4033 6.44519 3.58082 6.80495C3.76849 7.15457 4.04745 7.48393 4.42784 7.78795C4.81839 8.09196 5.31037 8.37065 5.90379 8.62907C6.50736 8.88748 7.22251 9.13069 8.05939 9.36884C9.21073 9.70326 10.1998 10.0732 11.0366 10.4785C11.8684 10.8889 12.5582 11.345 13.0959 11.8618C13.6436 12.3634 14.0443 12.9411 14.303 13.5846C14.5718 14.223 14.7037 14.9425 14.7037 15.7482C14.7037 16.5944 14.5363 17.3595 14.2016 18.0435C13.8668 18.7275 13.39 19.3102 12.7713 19.7967C12.1525 20.2831 11.4018 20.6581 10.5345 20.9215C9.67227 21.18 8.7086 21.3066 7.64348 21.3066C6.70516 21.3066 5.78714 21.1749 4.87925 20.9063C3.98151 20.6429 3.15984 20.2426 2.41933 19.7105C1.68897 19.1785 1.10062 18.5249 0.654286 17.7446C0.218096 16.9541 0 16.0471 0 15.0084H2.66787C2.66787 15.7228 2.79973 16.3309 3.06855 16.8477C3.33736 17.3493 3.70255 17.7699 4.16918 18.0993C4.64087 18.4337 5.17343 18.6769 5.76685 18.839C6.37041 18.991 6.99427 19.067 7.64348 19.067C8.5818 19.067 9.37303 18.9353 10.0222 18.6667C10.6715 18.4033 11.1634 18.0232 11.4982 17.5267C11.8329 17.0352 12.0054 16.4474 12.0054 15.7735Z" fill="white"/>
<path d="M25.5983 0.278687V21.0178H22.9558V0.278687H25.5983ZM32.1056 0.278687V2.52843H16.4636V0.278687H32.1056Z" fill="white"/>
<path d="M35.1083 0.278687H41.8084C43.33 0.278687 44.6132 0.516836 45.6581 0.993132C46.713 1.46943 47.5144 2.16867 48.0622 3.101C48.6201 4.02319 48.894 5.15819 48.894 6.50601C48.894 7.45353 48.7063 8.32505 48.3259 9.11043C47.9557 9.89074 47.418 10.5545 46.713 11.1068C46.0182 11.649 45.1813 12.0493 44.2125 12.3178L43.4619 12.6168H37.1625L37.1371 10.3822H41.8896C42.8533 10.3822 43.6546 10.21 44.2937 9.87047C44.9328 9.52085 45.4146 9.04962 45.7392 8.46185C46.0638 7.87408 46.2261 7.22044 46.2261 6.51106C46.2261 5.71555 46.074 5.01632 45.7696 4.41842C45.4653 3.82051 44.9835 3.35941 44.3241 3.03512C43.6749 2.7007 42.838 2.53855 41.8084 2.53855H37.7914V21.0229H35.1083V0.278687ZM46.9413 21.0178L42.0214 11.6186L44.8161 11.6034L49.8069 20.8456V21.0178H46.9413Z" fill="white"/>
<path d="M65.5098 18.7782V21.0128H54.7927V18.7782H65.5098ZM55.3354 0.278687V21.0178H52.6523V0.278687H55.3354ZM64.0947 9.19657V11.4311H54.7927V9.19657H64.0947ZM65.3729 0.278687V2.52843H54.7927V0.278687H65.3729Z" fill="white"/>
<path d="M76.328 2.118L69.6279 21.0178H66.889L74.6035 0.278687H76.3685L76.328 2.118ZM81.9427 21.0178L75.2274 2.118L75.1868 0.278687H76.9518L84.6967 21.0178H81.9427ZM81.5978 13.3414V15.5911H70.2264V13.3414H81.5978Z" fill="white"/>
<path d="M88.2575 0.278687H90.8595L97.4886 17.1821L104.107 0.278687H106.72L98.4877 21.0178H96.459L88.2575 0.278687ZM87.4055 0.278687H89.698L90.0733 12.9259V21.0178H87.4055V0.278687ZM105.259 0.278687H107.551V21.0178H104.884V12.9259L105.259 0.278687Z" fill="white"/>
<path d="M126.541 11.3196H121.413L121.388 9.11043H126.044C126.815 9.11043 127.485 8.9787 128.058 8.71015C128.631 8.44666 129.077 8.06664 129.392 7.57008C129.716 7.06845 129.879 6.47054 129.879 5.77636C129.879 5.01631 129.737 4.39815 129.447 3.92692C129.168 3.44049 128.737 3.09086 128.154 2.87298C127.581 2.64496 126.845 2.5335 125.958 2.5335H122.012V21.0178H119.329V0.278687H125.958C126.998 0.278687 127.921 0.390157 128.737 0.608037C129.554 0.815783 130.244 1.1502 130.807 1.60623C131.38 2.05213 131.816 2.62469 132.115 3.3138C132.415 4.00798 132.562 4.83897 132.562 5.80676C132.562 6.66308 132.349 7.43326 131.923 8.12743C131.496 8.81147 130.903 9.36885 130.142 9.80967C129.392 10.2454 128.509 10.5241 127.5 10.6508L126.541 11.3196ZM126.414 21.0178H120.353L121.87 18.7833H126.414C127.266 18.7833 127.992 18.6313 128.585 18.3273C129.189 18.0232 129.645 17.5976 129.96 17.0453C130.274 16.4829 130.431 15.8242 130.431 15.0641C130.431 14.2939 130.3 13.6302 130.031 13.0677C129.762 12.5053 129.341 12.0746 128.768 11.7706C128.195 11.4666 127.454 11.3146 126.541 11.3146H122.717L122.742 9.10537H127.971L128.54 9.90087C129.513 9.98701 130.335 10.2708 131.015 10.7572C131.689 11.2335 132.207 11.8415 132.557 12.5813C132.917 13.3211 133.099 14.1369 133.099 15.0287C133.099 16.3207 132.82 17.4101 132.267 18.3019C131.72 19.1836 130.949 19.8575 129.944 20.3237C128.945 20.7898 127.769 21.0178 126.414 21.0178Z" fill="white"/>
<path d="M159.99 0.278687L164.854 8.22371L169.718 0.278687H172.848L166.452 10.5494L173 21.0178H169.845L164.854 12.9157L159.864 21.0178H156.709L163.257 10.5494L156.861 0.278687H159.99Z" fill="white"/>
<path d="M145.602 20.4503C152.85 19.898 158.52 17.2024 156.39 11.1524C154.686 6.30839 151.561 0 145.602 0C139.642 0 135.372 6.04998 134.814 11.1524C134.098 17.704 138.876 20.9621 145.602 20.4503Z" fill="white"/>
<path d="M150.547 11.2588L142.685 6.61243H142.68V15.9103H142.685L150.547 11.2639C150.552 11.2639 150.547 11.2588 150.547 11.2588Z" fill="#1D2656"/>
<path d="M145.627 19.1936C146.849 19.0923 148.066 18.9251 149.263 18.6515C150.455 18.3779 151.637 17.9928 152.702 17.3847C153.762 16.7868 154.711 15.9052 155.157 14.7651C155.619 13.625 155.507 12.333 155.106 11.1878C154.31 8.87728 153.301 6.6022 151.799 4.66661C151.044 3.70895 150.151 2.8425 149.091 2.22939C148.036 1.61629 146.819 1.29708 145.596 1.30721C144.374 1.30721 143.162 1.62642 142.076 2.18379C140.991 2.74116 140.032 3.52655 139.221 4.44368C137.613 6.27792 136.528 8.58846 136.228 11.0054C136.097 12.2164 136.147 13.4578 136.533 14.6182C136.609 14.912 136.766 15.1806 136.883 15.4593C137.02 15.7329 137.197 15.9812 137.349 16.2447C137.547 16.4777 137.725 16.726 137.943 16.9388C138.176 17.1364 138.374 17.3746 138.633 17.5418C139.606 18.2816 140.773 18.7376 141.97 18.9859C143.167 19.2291 144.404 19.2747 145.627 19.1936ZM145.627 19.2088C144.404 19.3001 143.162 19.2595 141.96 19.0214C140.758 18.7832 139.581 18.3323 138.592 17.5925C138.333 17.4253 138.125 17.1871 137.892 16.9895C137.674 16.7716 137.491 16.5233 137.288 16.2903C137.131 16.0268 136.949 15.7734 136.807 15.4998C136.69 15.2161 136.528 14.9475 136.447 14.6486C136.046 13.4781 135.98 12.2164 136.107 10.9902C136.416 8.53779 137.512 6.21204 139.14 4.36766C139.956 3.44547 140.93 2.65502 142.031 2.08752C143.131 1.52508 144.359 1.20587 145.596 1.20587C146.834 1.2008 148.072 1.52509 149.137 2.15339C150.207 2.77663 151.105 3.65322 151.86 4.62101C153.367 6.5718 154.371 8.85702 155.167 11.1726C155.568 12.3279 155.679 13.6352 155.208 14.7904C154.751 15.9457 153.793 16.8324 152.723 17.4253C151.647 18.0282 150.465 18.4083 149.269 18.6819C148.072 18.9454 146.849 19.1075 145.627 19.2088Z" fill="#1D2656"/>
<path d="M155.152 11.9834C155.477 11.9834 155.74 11.7202 155.74 11.3956C155.74 11.071 155.477 10.8079 155.152 10.8079C154.827 10.8079 154.564 11.071 154.564 11.3956C154.564 11.7202 154.827 11.9834 155.152 11.9834Z" fill="#1D2656"/>
<path d="M145.52 19.7561C145.845 19.7561 146.108 19.493 146.108 19.1683C146.108 18.8437 145.845 18.5806 145.52 18.5806C145.195 18.5806 144.932 18.8437 144.932 19.1683C144.932 19.493 145.195 19.7561 145.52 19.7561Z" fill="#1D2656"/>
<path d="M137.542 7.47376C137.867 7.47376 138.131 7.21061 138.131 6.88599C138.131 6.56137 137.867 6.29822 137.542 6.29822C137.217 6.29822 136.954 6.56137 136.954 6.88599C136.954 7.21061 137.217 7.47376 137.542 7.47376Z" fill="#1D2656"/>
</svg>
