<svg width="72" height="67" viewBox="0 0 72 67" fill="none" xmlns="http://www.w3.org/2000/svg">
<path d="M35.3766 66.6894C58.9888 64.8883 77.4622 56.0977 70.5223 36.3685C64.9703 20.5719 54.7918 0 35.3766 0C15.9613 0 2.04839 19.7292 0.230788 36.3685C-2.09904 57.7335 13.4662 68.3583 35.3766 66.6894Z" fill="#1D2656"/>
<path d="M51.4871 36.7158L25.8755 21.5636H25.8589V51.8844H25.8755L51.4871 36.7323C51.5036 36.7323 51.4871 36.7158 51.4871 36.7158Z" fill="#FCEE21"/>
<path d="M35.4591 62.5917C39.4413 62.2613 43.407 61.716 47.3065 60.8237C51.1896 59.9314 55.0396 58.6756 58.5095 56.6928C61.963 54.743 65.0529 51.8679 66.507 48.1501C68.0106 44.4323 67.6471 40.2188 66.3417 36.4845C63.7475 28.9497 60.4593 21.5305 55.5683 15.2185C53.1063 12.0955 50.1981 9.27001 46.7447 7.27065C43.3078 5.27129 39.3421 4.23034 35.3599 4.26339C31.3777 4.26339 27.4286 5.30435 23.8925 7.12195C20.3565 8.93954 17.2335 11.5007 14.5897 14.4915C9.35175 20.4731 5.81571 28.0078 4.84081 35.8896C4.4112 39.8387 4.57644 43.887 5.83224 47.6709C6.08009 48.6293 6.59233 49.5051 6.97237 50.4139C7.41851 51.3061 7.99681 52.1158 8.49252 52.975C9.13694 53.7351 9.71529 54.5447 10.4258 55.2387C11.1859 55.8831 11.8303 56.6598 12.673 57.205C15.8455 59.6175 19.646 61.1046 23.5456 61.9143C27.4451 62.7074 31.4769 62.8561 35.4591 62.5917ZM35.4591 62.6413C31.4769 62.9387 27.4286 62.8066 23.5125 62.03C19.5964 61.2533 15.7629 59.7827 12.5408 57.3703C11.6981 56.825 11.0206 56.0484 10.2606 55.404C9.55004 54.6935 8.95519 53.8838 8.29424 53.1237C7.78201 52.2645 7.18714 51.4383 6.72448 50.546C6.34444 49.6207 5.81569 48.745 5.55132 47.7701C4.24595 43.9531 4.03117 39.8387 4.44426 35.84C5.4522 27.8426 9.02127 20.2582 14.3254 14.2436C16.9857 11.2363 20.1582 8.65864 23.7438 6.80799C27.3295 4.97387 31.3282 3.9329 35.3599 3.9329C39.3917 3.91638 43.4235 4.97388 46.8934 7.02281C50.3799 9.05521 53.3046 11.9138 55.7666 15.0698C60.6741 21.4314 63.9458 28.8836 66.54 36.4349C67.8454 40.2023 68.2089 44.4653 66.6722 48.2327C65.185 52.0001 62.0621 54.8918 58.5756 56.825C55.0726 58.7913 51.2226 60.0306 47.323 60.9228C43.4234 61.7821 39.4413 62.3108 35.4591 62.6413Z" fill="#FFF200"/>
<path d="M66.4905 39.0782C67.5491 39.0782 68.4073 38.22 68.4073 37.1614C68.4073 36.1029 67.5491 35.2448 66.4905 35.2448C65.4319 35.2448 64.5738 36.1029 64.5738 37.1614C64.5738 38.22 65.4319 39.0782 66.4905 39.0782Z" fill="#00AEEF"/>
<path d="M35.1122 64.4258C36.1708 64.4258 37.0289 63.5676 37.0289 62.5091C37.0289 61.4505 36.1708 60.5923 35.1122 60.5923C34.0536 60.5923 33.1954 61.4505 33.1954 62.5091C33.1954 63.5676 34.0536 64.4258 35.1122 64.4258Z" fill="#00AEEF"/>
<path d="M9.12054 24.3719C10.1791 24.3719 11.0373 23.5137 11.0373 22.4551C11.0373 21.3966 10.1791 20.5384 9.12054 20.5384C8.06196 20.5384 7.2038 21.3966 7.2038 22.4551C7.2038 23.5137 8.06196 24.3719 9.12054 24.3719Z" fill="#00AEEF"/>
</svg>
