<svg width="52" height="47" viewBox="0 0 52 47" fill="none" xmlns="http://www.w3.org/2000/svg">
<path d="M1.79688 31.625H3.25781L6.98438 40.8984L10.7031 31.625H12.1719L7.54688 43H6.40625L1.79688 31.625ZM1.32031 31.625H2.60938L2.82031 38.5625V43H1.32031V31.625ZM11.3516 31.625H12.6406V43H11.1406V38.5625L11.3516 31.625ZM14.6875 38.8672V38.6875C14.6875 38.0781 14.776 37.513 14.9531 36.9922C15.1302 36.4661 15.3854 36.0104 15.7188 35.625C16.0521 35.2344 16.4557 34.9323 16.9297 34.7188C17.4036 34.5 17.9349 34.3906 18.5234 34.3906C19.1172 34.3906 19.651 34.5 20.125 34.7188C20.6042 34.9323 21.0104 35.2344 21.3438 35.625C21.6823 36.0104 21.9401 36.4661 22.1172 36.9922C22.2943 37.513 22.3828 38.0781 22.3828 38.6875V38.8672C22.3828 39.4766 22.2943 40.0417 22.1172 40.5625C21.9401 41.0833 21.6823 41.5391 21.3438 41.9297C21.0104 42.3151 20.6068 42.6172 20.1328 42.8359C19.6641 43.0495 19.1328 43.1562 18.5391 43.1562C17.9453 43.1562 17.4115 43.0495 16.9375 42.8359C16.4635 42.6172 16.0573 42.3151 15.7188 41.9297C15.3854 41.5391 15.1302 41.0833 14.9531 40.5625C14.776 40.0417 14.6875 39.4766 14.6875 38.8672ZM16.1328 38.6875V38.8672C16.1328 39.2891 16.1823 39.6875 16.2812 40.0625C16.3802 40.4323 16.5286 40.7604 16.7266 41.0469C16.9297 41.3333 17.1823 41.5599 17.4844 41.7266C17.7865 41.888 18.138 41.9688 18.5391 41.9688C18.9349 41.9688 19.2812 41.888 19.5781 41.7266C19.8802 41.5599 20.1302 41.3333 20.3281 41.0469C20.526 40.7604 20.6745 40.4323 20.7734 40.0625C20.8776 39.6875 20.9297 39.2891 20.9297 38.8672V38.6875C20.9297 38.2708 20.8776 37.8776 20.7734 37.5078C20.6745 37.1328 20.5234 36.8021 20.3203 36.5156C20.1224 36.224 19.8724 35.9948 19.5703 35.8281C19.2734 35.6615 18.9245 35.5781 18.5234 35.5781C18.1276 35.5781 17.7786 35.6615 17.4766 35.8281C17.1797 35.9948 16.9297 36.224 16.7266 36.5156C16.5286 36.8021 16.3802 37.1328 16.2812 37.5078C16.1823 37.8776 16.1328 38.2708 16.1328 38.6875ZM26.6406 41.6953L28.9531 34.5469H30.4297L27.3906 43H26.4219L26.6406 41.6953ZM24.7109 34.5469L27.0938 41.7344L27.2578 43H26.2891L23.2266 34.5469H24.7109ZM33.3906 34.5469V43H31.9375V34.5469H33.3906ZM31.8281 32.3047C31.8281 32.0703 31.8984 31.8724 32.0391 31.7109C32.1849 31.5495 32.3984 31.4688 32.6797 31.4688C32.9557 31.4688 33.1667 31.5495 33.3125 31.7109C33.4635 31.8724 33.5391 32.0703 33.5391 32.3047C33.5391 32.5286 33.4635 32.7214 33.3125 32.8828C33.1667 33.0391 32.9557 33.1172 32.6797 33.1172C32.3984 33.1172 32.1849 33.0391 32.0391 32.8828C31.8984 32.7214 31.8281 32.5286 31.8281 32.3047ZM39.2188 43.1562C38.6302 43.1562 38.0964 43.0573 37.6172 42.8594C37.1432 42.6562 36.7344 42.3724 36.3906 42.0078C36.0521 41.6432 35.7917 41.2109 35.6094 40.7109C35.4271 40.2109 35.3359 39.6641 35.3359 39.0703V38.7422C35.3359 38.0547 35.4375 37.4427 35.6406 36.9062C35.8438 36.3646 36.1198 35.9062 36.4688 35.5312C36.8177 35.1562 37.2135 34.8724 37.6562 34.6797C38.099 34.487 38.5573 34.3906 39.0312 34.3906C39.6354 34.3906 40.1562 34.4948 40.5938 34.7031C41.0365 34.9115 41.3984 35.2031 41.6797 35.5781C41.9609 35.9479 42.1693 36.3854 42.3047 36.8906C42.4401 37.3906 42.5078 37.9375 42.5078 38.5312V39.1797H36.1953V38H41.0625V37.8906C41.0417 37.5156 40.9635 37.151 40.8281 36.7969C40.6979 36.4427 40.4896 36.151 40.2031 35.9219C39.9167 35.6927 39.526 35.5781 39.0312 35.5781C38.7031 35.5781 38.401 35.6484 38.125 35.7891C37.849 35.9245 37.612 36.1276 37.4141 36.3984C37.2161 36.6693 37.0625 37 36.9531 37.3906C36.8438 37.7812 36.7891 38.2318 36.7891 38.7422V39.0703C36.7891 39.4714 36.8438 39.849 36.9531 40.2031C37.0677 40.5521 37.2318 40.8594 37.4453 41.125C37.6641 41.3906 37.9271 41.599 38.2344 41.75C38.5469 41.901 38.901 41.9766 39.2969 41.9766C39.8073 41.9766 40.2396 41.8724 40.5938 41.6641C40.9479 41.4557 41.2578 41.1771 41.5234 40.8281L42.3984 41.5234C42.2161 41.7995 41.9844 42.0625 41.7031 42.3125C41.4219 42.5625 41.0755 42.7656 40.6641 42.9219C40.2578 43.0781 39.776 43.1562 39.2188 43.1562ZM49.1172 40.7578C49.1172 40.5495 49.0703 40.3568 48.9766 40.1797C48.888 39.9974 48.7031 39.8333 48.4219 39.6875C48.1458 39.5365 47.7292 39.4062 47.1719 39.2969C46.7031 39.1979 46.2786 39.0807 45.8984 38.9453C45.5234 38.8099 45.2031 38.6458 44.9375 38.4531C44.6771 38.2604 44.4766 38.0339 44.3359 37.7734C44.1953 37.513 44.125 37.2083 44.125 36.8594C44.125 36.526 44.1979 36.2109 44.3438 35.9141C44.4948 35.6172 44.7057 35.3542 44.9766 35.125C45.2526 34.8958 45.5833 34.7161 45.9688 34.5859C46.3542 34.4557 46.7839 34.3906 47.2578 34.3906C47.9349 34.3906 48.513 34.5104 48.9922 34.75C49.4714 34.9896 49.8385 35.3099 50.0938 35.7109C50.349 36.1068 50.4766 36.5469 50.4766 37.0312H49.0312C49.0312 36.7969 48.9609 36.5703 48.8203 36.3516C48.6849 36.1276 48.4844 35.9427 48.2188 35.7969C47.9583 35.651 47.638 35.5781 47.2578 35.5781C46.8568 35.5781 46.5312 35.6406 46.2812 35.7656C46.0365 35.8854 45.8568 36.0391 45.7422 36.2266C45.6328 36.4141 45.5781 36.612 45.5781 36.8203C45.5781 36.9766 45.6042 37.1172 45.6562 37.2422C45.7135 37.362 45.8125 37.474 45.9531 37.5781C46.0938 37.6771 46.2917 37.7708 46.5469 37.8594C46.8021 37.9479 47.1276 38.0365 47.5234 38.125C48.2161 38.2812 48.7865 38.4688 49.2344 38.6875C49.6823 38.9062 50.0156 39.1745 50.2344 39.4922C50.4531 39.8099 50.5625 40.1953 50.5625 40.6484C50.5625 41.0182 50.4844 41.3568 50.3281 41.6641C50.1771 41.9714 49.9557 42.237 49.6641 42.4609C49.3776 42.6797 49.0339 42.8516 48.6328 42.9766C48.237 43.0964 47.7917 43.1562 47.2969 43.1562C46.5521 43.1562 45.9219 43.0234 45.4062 42.7578C44.8906 42.4922 44.5 42.1484 44.2344 41.7266C43.9688 41.3047 43.8359 40.8594 43.8359 40.3906H45.2891C45.3099 40.7865 45.4245 41.1016 45.6328 41.3359C45.8411 41.5651 46.0964 41.7292 46.3984 41.8281C46.7005 41.9219 47 41.9688 47.2969 41.9688C47.6927 41.9688 48.0234 41.9167 48.2891 41.8125C48.5599 41.7083 48.7656 41.5651 48.9062 41.3828C49.0469 41.2005 49.1172 40.9922 49.1172 40.7578Z" fill="white"/>
<path d="M15.5 0L18 5H21.75L19.25 0H21.75L24.25 5H28L25.5 0H28L30.5 5H34.25L31.75 0H35.5C36.1875 0 36.776 0.244792 37.2656 0.734375C37.7552 1.22396 38 1.8125 38 2.5V17.5C38 18.1875 37.7552 18.776 37.2656 19.2656C36.776 19.7552 36.1875 20 35.5 20H15.5C14.8125 20 14.224 19.7552 13.7344 19.2656C13.2448 18.776 13 18.1875 13 17.5V2.5C13 1.8125 13.2448 1.22396 13.7344 0.734375C14.224 0.244792 14.8125 0 15.5 0Z" fill="white"/>
</svg>
