<svg width="33" height="32" viewBox="0 0 33 32" fill="none" xmlns="http://www.w3.org/2000/svg">
<path d="M0 32.0001C0 22.5183 7.38704 14.8323 16.5 14.8323C25.613 14.8323 33 22.5183 33 32.0001" fill="white"/>
<path d="M16.5003 18.1105C21.0622 18.1105 24.7604 14.2626 24.7604 9.51606C24.7604 4.76949 21.0622 0.921631 16.5003 0.921631C11.9383 0.921631 8.24014 4.76949 8.24014 9.51606C8.24014 14.2626 11.9383 18.1105 16.5003 18.1105Z" fill="white"/>
<path d="M16.5004 19.032C11.4568 19.032 7.35455 14.7638 7.35455 9.51602C7.35455 4.26825 11.4568 0 16.5004 0C21.5441 0 25.6463 4.26825 25.6463 9.51602C25.6463 14.7611 21.5415 19.032 16.5004 19.032ZM16.5004 1.84317C12.4336 1.84317 9.12603 5.28463 9.12603 9.51602C9.12603 13.7474 12.4336 17.1889 16.5004 17.1889C20.5672 17.1889 23.8748 13.7474 23.8748 9.51602C23.8748 5.28463 20.5647 1.84317 16.5004 1.84317Z" fill="#181818"/>
</svg>
