<svg width="18" height="34" viewBox="0 0 18 34" fill="none" xmlns="http://www.w3.org/2000/svg">
<path d="M9 16.515L7.695 15.345C6.18 13.98 4.9275 12.8025 3.9375 11.8125C2.9475 10.8225 2.16 9.93375 1.575 9.14625C0.99 8.35875 0.58125 7.635 0.34875 6.975C0.11625 6.315 0 5.64 0 4.95C0 3.54 0.4725 2.3625 1.4175 1.4175C2.3625 0.4725 3.54 0 4.95 0C5.73 0 6.4725 0.165 7.1775 0.495C7.8825 0.825 8.49 1.29 9 1.89C9.51 1.29 10.1175 0.825 10.8225 0.495C11.5275 0.165 12.27 0 13.05 0C14.46 0 15.6375 0.4725 16.5825 1.4175C17.5275 2.3625 18 3.54 18 4.95C18 5.64 17.8838 6.315 17.6513 6.975C17.4188 7.635 17.01 8.35875 16.425 9.14625C15.84 9.93375 15.0525 10.8225 14.0625 11.8125C13.0725 12.8025 11.82 13.98 10.305 15.345L9 16.515ZM9 14.085C10.44 12.795 11.625 11.6887 12.555 10.7662C13.485 9.84375 14.22 9.04125 14.76 8.35875C15.3 7.67625 15.675 7.06875 15.885 6.53625C16.095 6.00375 16.2 5.475 16.2 4.95C16.2 4.05 15.9 3.3 15.3 2.7C14.7 2.1 13.95 1.8 13.05 1.8C12.345 1.8 11.6925 1.99875 11.0925 2.39625C10.4925 2.79375 10.08 3.3 9.855 3.915H8.145C7.92 3.3 7.5075 2.79375 6.9075 2.39625C6.3075 1.99875 5.655 1.8 4.95 1.8C4.05 1.8 3.3 2.1 2.7 2.7C2.1 3.3 1.8 4.05 1.8 4.95C1.8 5.475 1.905 6.00375 2.115 6.53625C2.325 7.06875 2.7 7.67625 3.24 8.35875C3.78 9.04125 4.515 9.84375 5.445 10.7662C6.375 11.6887 7.56 12.795 9 14.085Z" fill="white"/>
<path d="M1.66016 26.3125H3.54297C3.97005 26.3125 4.33073 26.3776 4.625 26.5078C4.92188 26.638 5.14714 26.8307 5.30078 27.0859C5.45703 27.3385 5.53516 27.6497 5.53516 28.0195C5.53516 28.2799 5.48177 28.5182 5.375 28.7344C5.27083 28.9479 5.11979 29.1302 4.92188 29.2812C4.72656 29.4297 4.49219 29.5404 4.21875 29.6133L4.00781 29.6953H2.23828L2.23047 29.082H3.56641C3.83724 29.082 4.0625 29.0352 4.24219 28.9414C4.42188 28.8451 4.55729 28.7161 4.64844 28.5547C4.73958 28.3932 4.78516 28.2148 4.78516 28.0195C4.78516 27.8008 4.74219 27.6094 4.65625 27.4453C4.57031 27.2812 4.4349 27.1549 4.25 27.0664C4.06771 26.9753 3.83203 26.9297 3.54297 26.9297H2.41406V32H1.66016V26.3125ZM4.98438 32L3.60156 29.4219L4.38672 29.418L5.78906 31.9531V32H4.98438ZM8.97266 31.2773V29.1016C8.97266 28.9349 8.9388 28.7904 8.87109 28.668C8.80599 28.543 8.70703 28.4466 8.57422 28.3789C8.44141 28.3112 8.27734 28.2773 8.08203 28.2773C7.89974 28.2773 7.73958 28.3086 7.60156 28.3711C7.46615 28.4336 7.35938 28.5156 7.28125 28.6172C7.20573 28.7188 7.16797 28.8281 7.16797 28.9453H6.44531C6.44531 28.7943 6.48438 28.6445 6.5625 28.4961C6.64062 28.3477 6.7526 28.2135 6.89844 28.0938C7.04688 27.9714 7.22396 27.875 7.42969 27.8047C7.63802 27.7318 7.86979 27.6953 8.125 27.6953C8.43229 27.6953 8.70312 27.7474 8.9375 27.8516C9.17448 27.9557 9.35938 28.1133 9.49219 28.3242C9.6276 28.5326 9.69531 28.7943 9.69531 29.1094V31.0781C9.69531 31.2188 9.70703 31.3685 9.73047 31.5273C9.75651 31.6862 9.79427 31.8229 9.84375 31.9375V32H9.08984C9.05339 31.9167 9.02474 31.806 9.00391 31.668C8.98307 31.5273 8.97266 31.3971 8.97266 31.2773ZM9.09766 29.4375L9.10547 29.9453H8.375C8.16927 29.9453 7.98568 29.9622 7.82422 29.9961C7.66276 30.0273 7.52734 30.0755 7.41797 30.1406C7.30859 30.2057 7.22526 30.2878 7.16797 30.3867C7.11068 30.4831 7.08203 30.5964 7.08203 30.7266C7.08203 30.8594 7.11198 30.9805 7.17188 31.0898C7.23177 31.1992 7.32161 31.2865 7.44141 31.3516C7.5638 31.4141 7.71354 31.4453 7.89062 31.4453C8.11198 31.4453 8.30729 31.3984 8.47656 31.3047C8.64583 31.2109 8.77995 31.0964 8.87891 30.9609C8.98047 30.8255 9.03516 30.694 9.04297 30.5664L9.35156 30.9141C9.33333 31.0234 9.28385 31.1445 9.20312 31.2773C9.1224 31.4102 9.01432 31.5378 8.87891 31.6602C8.74609 31.7799 8.58724 31.8802 8.40234 31.9609C8.22005 32.0391 8.01432 32.0781 7.78516 32.0781C7.4987 32.0781 7.2474 32.0221 7.03125 31.9102C6.81771 31.7982 6.65104 31.6484 6.53125 31.4609C6.41406 31.2708 6.35547 31.0586 6.35547 30.8242C6.35547 30.5977 6.39974 30.3984 6.48828 30.2266C6.57682 30.0521 6.70443 29.9076 6.87109 29.793C7.03776 29.6758 7.23828 29.5872 7.47266 29.5273C7.70703 29.4674 7.96875 29.4375 8.25781 29.4375H9.09766ZM12.6016 27.7734V28.3281H10.3164V27.7734H12.6016ZM11.0898 26.7461H11.8125V30.9531C11.8125 31.0964 11.8346 31.2044 11.8789 31.2773C11.9232 31.3503 11.9805 31.3984 12.0508 31.4219C12.1211 31.4453 12.1966 31.457 12.2773 31.457C12.3372 31.457 12.3997 31.4518 12.4648 31.4414C12.5326 31.4284 12.5833 31.418 12.6172 31.4102L12.6211 32C12.5638 32.0182 12.4883 32.0352 12.3945 32.0508C12.3034 32.069 12.1927 32.0781 12.0625 32.0781C11.8854 32.0781 11.7227 32.043 11.5742 31.9727C11.4258 31.9023 11.3073 31.7852 11.2188 31.6211C11.1328 31.4544 11.0898 31.2305 11.0898 30.9492V26.7461ZM15.2031 32.0781C14.9089 32.0781 14.6419 32.0286 14.4023 31.9297C14.1654 31.8281 13.9609 31.6862 13.7891 31.5039C13.6198 31.3216 13.4896 31.1055 13.3984 30.8555C13.3073 30.6055 13.2617 30.332 13.2617 30.0352V29.8711C13.2617 29.5273 13.3125 29.2214 13.4141 28.9531C13.5156 28.6823 13.6536 28.4531 13.8281 28.2656C14.0026 28.0781 14.2005 27.9362 14.4219 27.8398C14.6432 27.7435 14.8724 27.6953 15.1094 27.6953C15.4115 27.6953 15.6719 27.7474 15.8906 27.8516C16.112 27.9557 16.293 28.1016 16.4336 28.2891C16.5742 28.474 16.6784 28.6927 16.7461 28.9453C16.8138 29.1953 16.8477 29.4688 16.8477 29.7656V30.0898H13.6914V29.5H16.125V29.4453C16.1146 29.2578 16.0755 29.0755 16.0078 28.8984C15.9427 28.7214 15.8385 28.5755 15.6953 28.4609C15.5521 28.3464 15.3568 28.2891 15.1094 28.2891C14.9453 28.2891 14.7943 28.3242 14.6562 28.3945C14.5182 28.4622 14.3997 28.5638 14.3008 28.6992C14.2018 28.8346 14.125 29 14.0703 29.1953C14.0156 29.3906 13.9883 29.6159 13.9883 29.8711V30.0352C13.9883 30.2357 14.0156 30.4245 14.0703 30.6016C14.1276 30.776 14.2096 30.9297 14.3164 31.0625C14.4258 31.1953 14.5573 31.2995 14.7109 31.375C14.8672 31.4505 15.0443 31.4883 15.2422 31.4883C15.4974 31.4883 15.7135 31.4362 15.8906 31.332C16.0677 31.2279 16.2227 31.0885 16.3555 30.9141L16.793 31.2617C16.7018 31.3997 16.5859 31.5312 16.4453 31.6562C16.3047 31.7812 16.1315 31.8828 15.9258 31.9609C15.7227 32.0391 15.4818 32.0781 15.2031 32.0781Z" fill="#F9F9F9"/>
</svg>
