<svg width="47" height="49" viewBox="0 0 47 49" fill="none" xmlns="http://www.w3.org/2000/svg">
<path d="M7.38281 42.0493C7.38281 41.7837 7.34115 41.5493 7.25781 41.3462C7.17969 41.1379 7.03906 40.9504 6.83594 40.7837C6.63802 40.617 6.36198 40.4582 6.00781 40.3071C5.65885 40.1561 5.21615 40.0024 4.67969 39.8462C4.11719 39.6795 3.60938 39.4946 3.15625 39.2915C2.70312 39.0832 2.3151 38.8462 1.99219 38.5806C1.66927 38.3149 1.42188 38.0103 1.25 37.6665C1.07812 37.3228 0.992188 36.9295 0.992188 36.4868C0.992188 36.0441 1.08333 35.6353 1.26562 35.2603C1.44792 34.8853 1.70833 34.5597 2.04688 34.2837C2.39062 34.0024 2.79948 33.7837 3.27344 33.6274C3.7474 33.4712 4.27604 33.3931 4.85938 33.3931C5.71354 33.3931 6.4375 33.5571 7.03125 33.8853C7.63021 34.2082 8.08594 34.6326 8.39844 35.1587C8.71094 35.6795 8.86719 36.2368 8.86719 36.8306H7.36719C7.36719 36.4035 7.27604 36.0259 7.09375 35.6978C6.91146 35.3644 6.63542 35.104 6.26562 34.9165C5.89583 34.7238 5.42708 34.6274 4.85938 34.6274C4.32292 34.6274 3.88021 34.7082 3.53125 34.8696C3.18229 35.0311 2.92188 35.2498 2.75 35.5259C2.58333 35.8019 2.5 36.117 2.5 36.4712C2.5 36.7108 2.54948 36.9295 2.64844 37.1274C2.7526 37.3201 2.91146 37.4998 3.125 37.6665C3.34375 37.8332 3.61979 37.9868 3.95312 38.1274C4.29167 38.2681 4.69531 38.4035 5.16406 38.5337C5.8099 38.716 6.36719 38.9191 6.83594 39.1431C7.30469 39.367 7.6901 39.6196 7.99219 39.9009C8.29948 40.1769 8.52604 40.492 8.67188 40.8462C8.82292 41.1951 8.89844 41.591 8.89844 42.0337C8.89844 42.4972 8.80469 42.9165 8.61719 43.2915C8.42969 43.6665 8.16146 43.9868 7.8125 44.2524C7.46354 44.5181 7.04427 44.7238 6.55469 44.8696C6.07031 45.0103 5.52865 45.0806 4.92969 45.0806C4.40365 45.0806 3.88542 45.0076 3.375 44.8618C2.86979 44.716 2.40885 44.4972 1.99219 44.2056C1.58073 43.9139 1.25 43.5545 1 43.1274C0.755208 42.6951 0.632812 42.1951 0.632812 41.6274H2.13281C2.13281 42.0181 2.20833 42.354 2.35938 42.6353C2.51042 42.9113 2.71615 43.1405 2.97656 43.3228C3.24219 43.505 3.54167 43.6405 3.875 43.729C4.21354 43.8123 4.5651 43.854 4.92969 43.854C5.45573 43.854 5.90104 43.7811 6.26562 43.6353C6.63021 43.4894 6.90625 43.2811 7.09375 43.0103C7.28646 42.7394 7.38281 42.4191 7.38281 42.0493ZM12.0469 38.0962V48.1743H10.5938V36.4712H11.9219L12.0469 38.0962ZM17.7422 40.6274V40.7915C17.7422 41.4061 17.6693 41.9764 17.5234 42.5024C17.3776 43.0233 17.1641 43.4764 16.8828 43.8618C16.6068 44.2472 16.2656 44.5467 15.8594 44.7603C15.4531 44.9738 14.987 45.0806 14.4609 45.0806C13.9245 45.0806 13.4505 44.992 13.0391 44.8149C12.6276 44.6379 12.2786 44.38 11.9922 44.0415C11.7057 43.703 11.4766 43.2967 11.3047 42.8228C11.138 42.3488 11.0234 41.8149 10.9609 41.2212V40.3462C11.0234 39.7212 11.1406 39.1613 11.3125 38.6665C11.4844 38.1717 11.7109 37.7498 11.9922 37.4009C12.2786 37.0467 12.625 36.7785 13.0312 36.5962C13.4375 36.4087 13.9062 36.3149 14.4375 36.3149C14.9688 36.3149 15.4401 36.4191 15.8516 36.6274C16.263 36.8306 16.6094 37.1222 16.8906 37.5024C17.1719 37.8826 17.3828 38.3384 17.5234 38.8696C17.6693 39.3957 17.7422 39.9816 17.7422 40.6274ZM16.2891 40.7915V40.6274C16.2891 40.2056 16.2448 39.8097 16.1562 39.4399C16.0677 39.0649 15.9297 38.7368 15.7422 38.4556C15.5599 38.1691 15.3255 37.9451 15.0391 37.7837C14.7526 37.617 14.4115 37.5337 14.0156 37.5337C13.651 37.5337 13.3333 37.5962 13.0625 37.7212C12.7969 37.8462 12.5703 38.0155 12.3828 38.229C12.1953 38.4373 12.0417 38.6769 11.9219 38.9478C11.8073 39.2134 11.7214 39.4894 11.6641 39.7759V41.7993C11.7682 42.1639 11.9141 42.5076 12.1016 42.8306C12.2891 43.1483 12.5391 43.4061 12.8516 43.604C13.1641 43.7967 13.5573 43.8931 14.0312 43.8931C14.4219 43.8931 14.7578 43.8123 15.0391 43.6509C15.3255 43.4842 15.5599 43.2576 15.7422 42.9712C15.9297 42.6847 16.0677 42.3566 16.1562 41.9868C16.2448 41.6118 16.2891 41.2134 16.2891 40.7915ZM19.2031 40.7915V40.6118C19.2031 40.0024 19.2917 39.4373 19.4688 38.9165C19.6458 38.3905 19.901 37.9347 20.2344 37.5493C20.5677 37.1587 20.9714 36.8566 21.4453 36.6431C21.9193 36.4243 22.4505 36.3149 23.0391 36.3149C23.6328 36.3149 24.1667 36.4243 24.6406 36.6431C25.1198 36.8566 25.526 37.1587 25.8594 37.5493C26.1979 37.9347 26.4557 38.3905 26.6328 38.9165C26.8099 39.4373 26.8984 40.0024 26.8984 40.6118V40.7915C26.8984 41.4009 26.8099 41.966 26.6328 42.4868C26.4557 43.0076 26.1979 43.4634 25.8594 43.854C25.526 44.2394 25.1224 44.5415 24.6484 44.7603C24.1797 44.9738 23.6484 45.0806 23.0547 45.0806C22.4609 45.0806 21.9271 44.9738 21.4531 44.7603C20.9792 44.5415 20.5729 44.2394 20.2344 43.854C19.901 43.4634 19.6458 43.0076 19.4688 42.4868C19.2917 41.966 19.2031 41.4009 19.2031 40.7915ZM20.6484 40.6118V40.7915C20.6484 41.2134 20.6979 41.6118 20.7969 41.9868C20.8958 42.3566 21.0443 42.6847 21.2422 42.9712C21.4453 43.2576 21.6979 43.4842 22 43.6509C22.3021 43.8123 22.6536 43.8931 23.0547 43.8931C23.4505 43.8931 23.7969 43.8123 24.0938 43.6509C24.3958 43.4842 24.6458 43.2576 24.8438 42.9712C25.0417 42.6847 25.1901 42.3566 25.2891 41.9868C25.3932 41.6118 25.4453 41.2134 25.4453 40.7915V40.6118C25.4453 40.1951 25.3932 39.8019 25.2891 39.4321C25.1901 39.0571 25.0391 38.7264 24.8359 38.4399C24.638 38.1483 24.388 37.9191 24.0859 37.7524C23.7891 37.5858 23.4401 37.5024 23.0391 37.5024C22.6432 37.5024 22.2943 37.5858 21.9922 37.7524C21.6953 37.9191 21.4453 38.1483 21.2422 38.4399C21.0443 38.7264 20.8958 39.0571 20.7969 39.4321C20.6979 39.8019 20.6484 40.1951 20.6484 40.6118ZM30.1562 37.7993V44.9243H28.7109V36.4712H30.1172L30.1562 37.7993ZM32.7969 36.4243L32.7891 37.7681C32.6693 37.742 32.5547 37.7264 32.4453 37.7212C32.3411 37.7108 32.2214 37.7056 32.0859 37.7056C31.7526 37.7056 31.4583 37.7576 31.2031 37.8618C30.9479 37.966 30.7318 38.1118 30.5547 38.2993C30.3776 38.4868 30.237 38.7108 30.1328 38.9712C30.0339 39.2264 29.9688 39.5076 29.9375 39.8149L29.5312 40.0493C29.5312 39.5389 29.5807 39.0597 29.6797 38.6118C29.7839 38.1639 29.9427 37.7681 30.1562 37.4243C30.3698 37.0754 30.6406 36.8045 30.9688 36.6118C31.3021 36.4139 31.6979 36.3149 32.1562 36.3149C32.2604 36.3149 32.3802 36.328 32.5156 36.354C32.651 36.3748 32.7448 36.3983 32.7969 36.4243ZM38.0625 36.4712V37.5806H33.4922V36.4712H38.0625ZM35.0391 34.4165H36.4844V42.8306C36.4844 43.117 36.5286 43.3332 36.6172 43.479C36.7057 43.6248 36.8203 43.7212 36.9609 43.7681C37.1016 43.8149 37.2526 43.8384 37.4141 43.8384C37.5339 43.8384 37.6589 43.828 37.7891 43.8071C37.9245 43.7811 38.026 43.7603 38.0938 43.7446L38.1016 44.9243C37.987 44.9608 37.8359 44.9946 37.6484 45.0259C37.4661 45.0623 37.2448 45.0806 36.9844 45.0806C36.6302 45.0806 36.3047 45.0103 36.0078 44.8696C35.7109 44.729 35.474 44.4946 35.2969 44.1665C35.125 43.8332 35.0391 43.3853 35.0391 42.8228V34.4165ZM44.6797 42.6821C44.6797 42.4738 44.6328 42.2811 44.5391 42.104C44.4505 41.9217 44.2656 41.7576 43.9844 41.6118C43.7083 41.4608 43.2917 41.3306 42.7344 41.2212C42.2656 41.1222 41.8411 41.005 41.4609 40.8696C41.0859 40.7342 40.7656 40.5701 40.5 40.3774C40.2396 40.1847 40.0391 39.9582 39.8984 39.6978C39.7578 39.4373 39.6875 39.1326 39.6875 38.7837C39.6875 38.4504 39.7604 38.1353 39.9062 37.8384C40.0573 37.5415 40.2682 37.2785 40.5391 37.0493C40.8151 36.8201 41.1458 36.6405 41.5312 36.5103C41.9167 36.38 42.3464 36.3149 42.8203 36.3149C43.4974 36.3149 44.0755 36.4347 44.5547 36.6743C45.0339 36.9139 45.401 37.2342 45.6562 37.6353C45.9115 38.0311 46.0391 38.4712 46.0391 38.9556H44.5938C44.5938 38.7212 44.5234 38.4946 44.3828 38.2759C44.2474 38.0519 44.0469 37.867 43.7812 37.7212C43.5208 37.5754 43.2005 37.5024 42.8203 37.5024C42.4193 37.5024 42.0938 37.5649 41.8438 37.6899C41.599 37.8097 41.4193 37.9634 41.3047 38.1509C41.1953 38.3384 41.1406 38.5363 41.1406 38.7446C41.1406 38.9009 41.1667 39.0415 41.2188 39.1665C41.276 39.2863 41.375 39.3983 41.5156 39.5024C41.6562 39.6014 41.8542 39.6951 42.1094 39.7837C42.3646 39.8722 42.6901 39.9608 43.0859 40.0493C43.7786 40.2056 44.349 40.3931 44.7969 40.6118C45.2448 40.8306 45.5781 41.0988 45.7969 41.4165C46.0156 41.7342 46.125 42.1196 46.125 42.5728C46.125 42.9425 46.0469 43.2811 45.8906 43.5884C45.7396 43.8957 45.5182 44.1613 45.2266 44.3853C44.9401 44.604 44.5964 44.7759 44.1953 44.9009C43.7995 45.0207 43.3542 45.0806 42.8594 45.0806C42.1146 45.0806 41.4844 44.9478 40.9688 44.6821C40.4531 44.4165 40.0625 44.0728 39.7969 43.6509C39.5312 43.229 39.3984 42.7837 39.3984 42.3149H40.8516C40.8724 42.7108 40.987 43.0259 41.1953 43.2603C41.4036 43.4894 41.6589 43.6535 41.9609 43.7524C42.263 43.8462 42.5625 43.8931 42.8594 43.8931C43.2552 43.8931 43.5859 43.841 43.8516 43.7368C44.1224 43.6326 44.3281 43.4894 44.4688 43.3071C44.6094 43.1248 44.6797 42.9165 44.6797 42.6821Z" fill="white"/>
<path d="M20.7514 13.1757L12.4243 21.5027C12.1432 21.7838 11.8095 21.9243 11.423 21.9243C11.0365 21.9243 10.7027 21.7838 10.4216 21.5027C10.1405 21.2216 10 20.8878 10 20.5014C10 20.1149 10.1405 19.7811 10.4216 19.5L22.9297 7.02703H19.2757V8.43243C19.2757 8.83063 19.141 9.16441 18.8716 9.43378C18.6023 9.70315 18.2685 9.83784 17.8703 9.83784C17.4721 9.83784 17.1383 9.70315 16.8689 9.43378C16.5995 9.16441 16.4649 8.83063 16.4649 8.43243V5.62162C16.4649 5.22342 16.5995 4.88964 16.8689 4.62027C17.1383 4.3509 17.4721 4.21622 17.8703 4.21622H24.6865C25.0613 4.21622 25.4185 4.28649 25.7581 4.42703C26.0977 4.56757 26.3964 4.76667 26.6541 5.02432L30.8703 9.20541C31.3387 9.67387 31.8833 10.0662 32.5041 10.3824C33.1248 10.6986 33.7982 10.927 34.5243 11.0676C34.9225 11.1378 35.268 11.3194 35.5608 11.6122C35.8536 11.905 36 12.2505 36 12.6486C36 13.0468 35.836 13.3748 35.5081 13.6324C35.1802 13.8901 34.8171 13.9955 34.4189 13.9486C33.3649 13.8081 32.3928 13.527 31.5027 13.1054C30.6126 12.6838 29.7928 12.1099 29.0432 11.3838L27.6378 9.90811L24.5459 13L26.4081 14.8622C26.736 15.1901 26.8707 15.5824 26.8122 16.0392C26.7536 16.4959 26.5252 16.8414 26.127 17.0757L19.7324 20.7649C19.4045 20.9523 19.0473 20.9991 18.6608 20.9054C18.2743 20.8117 17.9874 20.6009 17.8 20.273C17.6126 19.945 17.5716 19.5878 17.677 19.2014C17.7824 18.8149 17.9991 18.5279 18.327 18.3405L23.1405 15.5649L20.7514 13.1757ZM31.1865 5.62162C30.4135 5.62162 29.7459 5.3464 29.1838 4.79595C28.6216 4.2455 28.3405 3.58378 28.3405 2.81081C28.3405 2.03784 28.6216 1.37613 29.1838 0.825676C29.7459 0.275225 30.4135 0 31.1865 0C31.9595 0 32.627 0.275225 33.1892 0.825676C33.7514 1.37613 34.0324 2.03784 34.0324 2.81081C34.0324 3.58378 33.7514 4.2455 33.1892 4.79595C32.627 5.3464 31.9595 5.62162 31.1865 5.62162Z" fill="white"/>
</svg>
