<svg width="23" height="52" viewBox="0 0 23 52" fill="none" xmlns="http://www.w3.org/2000/svg">
<path d="M8.52344 35.7782V47.1532H7.03906V35.7782H8.52344ZM12.1797 35.7782V37.0126H3.39062V35.7782H12.1797ZM15.6562 45.8485L17.9688 38.7001H19.4453L16.4062 47.1532H15.4375L15.6562 45.8485ZM13.7266 38.7001L16.1094 45.8876L16.2734 47.1532H15.3047L12.2422 38.7001H13.7266Z" fill="white"/>
<path d="M18.7395 21.798H4.2605C1.90721 21.798 0 19.8908 0 17.5375V10.1412C0 7.78789 1.90721 5.88068 4.2605 5.88068H18.7395C21.0928 5.88068 23 7.78789 23 10.1412V17.5375C23 19.8902 21.0921 21.798 18.7395 21.798Z" fill="white"/>
<path d="M16.9197 24.1532H6.08029C5.83444 24.1532 5.63548 23.9542 5.63548 23.7084C5.63548 23.4625 5.83444 23.2636 6.08029 23.2636H16.9191C17.1649 23.2636 17.3639 23.4625 17.3639 23.7084C17.3645 23.9542 17.1649 24.1532 16.9197 24.1532Z" fill="white"/>
<path d="M15.0645 2.37673L12.9406 4.50065L12.933 4.50825C12.7809 4.66096 12.5876 4.74649 12.3887 4.7674C12.3627 4.76931 12.3361 4.77057 12.3101 4.77057C12.0795 4.77057 11.8488 4.68313 11.6733 4.50698L11.667 4.50065L7.93491 0.768589C7.75876 0.593075 7.75876 0.307942 7.93491 0.131794C8.02298 0.0437203 8.13767 0 8.25299 0C8.36831 0 8.48363 0.0437203 8.5717 0.131794L12.3038 3.86385L14.4277 1.73994C14.5157 1.65186 14.6311 1.60751 14.7464 1.60751C14.8617 1.60751 14.9764 1.65186 15.0645 1.73994C15.2406 1.91545 15.2406 2.20058 15.0645 2.37673Z" fill="white"/>
</svg>
