<svg width="15" height="19" viewBox="0 0 15 19" fill="none" xmlns="http://www.w3.org/2000/svg">
<path d="M7.50001 11.9025C6.66888 11.9025 5.96242 11.6222 5.38063 11.0616C4.79884 10.501 4.50794 9.82033 4.50794 9.01948V3.2534C4.50794 2.45256 4.79884 1.77184 5.38063 1.21125C5.96242 0.650657 6.66888 0.370361 7.50001 0.370361C8.33113 0.370361 9.03759 0.650657 9.61938 1.21125C10.2012 1.77184 10.4921 2.45256 10.4921 3.2534V9.01948C10.4921 9.82033 10.2012 10.501 9.61938 11.0616C9.03759 11.6222 8.33113 11.9025 7.50001 11.9025ZM6.50265 18.6296V15.6745C4.7739 15.4503 3.34436 14.7055 2.21403 13.4401C1.08369 12.1748 0.518524 10.7013 0.518524 9.01948H2.51323C2.51323 10.3489 2.99944 11.4821 3.97186 12.4191C4.94428 13.3561 6.12033 13.8246 7.50001 13.8246C8.87968 13.8246 10.0557 13.3561 11.0281 12.4191C12.0006 11.4821 12.4868 10.3489 12.4868 9.01948H14.4815C14.4815 10.7013 13.9163 12.1748 12.786 13.4401C11.6557 14.7055 10.2261 15.4503 8.49736 15.6745V18.6296H6.50265Z" fill="white"/>
</svg>
