<svg width="34" height="35" viewBox="0 0 34 35" fill="none" xmlns="http://www.w3.org/2000/svg">
<path d="M15.7143 10.2857H8V7.71429H15.7143V0H18.2857V7.71429H26V10.2857H18.2857V18H15.7143V10.2857Z" fill="white"/>
<path d="M2.15625 31.2812L3.28516 27.3125H3.83203L3.51562 28.8555L2.30078 33H1.75781L2.15625 31.2812ZM0.988281 27.3125L1.88672 31.2031L2.15625 33H1.61719L0.238281 27.3125H0.988281ZM5.29297 31.1992L6.17188 27.3125H6.92578L5.55078 33H5.01172L5.29297 31.1992ZM3.91406 27.3125L5.01172 31.2812L5.41016 33H4.86719L3.69531 28.8555L3.375 27.3125H3.91406ZM10.0117 32.2773V30.1016C10.0117 29.9349 9.97786 29.7904 9.91016 29.668C9.84505 29.543 9.74609 29.4466 9.61328 29.3789C9.48047 29.3112 9.31641 29.2773 9.12109 29.2773C8.9388 29.2773 8.77865 29.3086 8.64062 29.3711C8.50521 29.4336 8.39844 29.5156 8.32031 29.6172C8.24479 29.7188 8.20703 29.8281 8.20703 29.9453H7.48438C7.48438 29.7943 7.52344 29.6445 7.60156 29.4961C7.67969 29.3477 7.79167 29.2135 7.9375 29.0938C8.08594 28.9714 8.26302 28.875 8.46875 28.8047C8.67708 28.7318 8.90885 28.6953 9.16406 28.6953C9.47135 28.6953 9.74219 28.7474 9.97656 28.8516C10.2135 28.9557 10.3984 29.1133 10.5312 29.3242C10.6667 29.5326 10.7344 29.7943 10.7344 30.1094V32.0781C10.7344 32.2188 10.7461 32.3685 10.7695 32.5273C10.7956 32.6862 10.8333 32.8229 10.8828 32.9375V33H10.1289C10.0924 32.9167 10.0638 32.806 10.043 32.668C10.0221 32.5273 10.0117 32.3971 10.0117 32.2773ZM10.1367 30.4375L10.1445 30.9453H9.41406C9.20833 30.9453 9.02474 30.9622 8.86328 30.9961C8.70182 31.0273 8.56641 31.0755 8.45703 31.1406C8.34766 31.2057 8.26432 31.2878 8.20703 31.3867C8.14974 31.4831 8.12109 31.5964 8.12109 31.7266C8.12109 31.8594 8.15104 31.9805 8.21094 32.0898C8.27083 32.1992 8.36068 32.2865 8.48047 32.3516C8.60286 32.4141 8.7526 32.4453 8.92969 32.4453C9.15104 32.4453 9.34635 32.3984 9.51562 32.3047C9.6849 32.2109 9.81901 32.0964 9.91797 31.9609C10.0195 31.8255 10.0742 31.694 10.082 31.5664L10.3906 31.9141C10.3724 32.0234 10.3229 32.1445 10.2422 32.2773C10.1615 32.4102 10.0534 32.5378 9.91797 32.6602C9.78516 32.7799 9.6263 32.8802 9.44141 32.9609C9.25911 33.0391 9.05339 33.0781 8.82422 33.0781C8.53776 33.0781 8.28646 33.0221 8.07031 32.9102C7.85677 32.7982 7.6901 32.6484 7.57031 32.4609C7.45312 32.2708 7.39453 32.0586 7.39453 31.8242C7.39453 31.5977 7.4388 31.3984 7.52734 31.2266C7.61589 31.0521 7.74349 30.9076 7.91016 30.793C8.07682 30.6758 8.27734 30.5872 8.51172 30.5273C8.74609 30.4674 9.00781 30.4375 9.29688 30.4375H10.1367ZM13.6406 28.7734V29.3281H11.3555V28.7734H13.6406ZM12.1289 27.7461H12.8516V31.9531C12.8516 32.0964 12.8737 32.2044 12.918 32.2773C12.9622 32.3503 13.0195 32.3984 13.0898 32.4219C13.1602 32.4453 13.2357 32.457 13.3164 32.457C13.3763 32.457 13.4388 32.4518 13.5039 32.4414C13.5716 32.4284 13.6224 32.418 13.6562 32.4102L13.6602 33C13.6029 33.0182 13.5273 33.0352 13.4336 33.0508C13.3424 33.069 13.2318 33.0781 13.1016 33.0781C12.9245 33.0781 12.7617 33.043 12.6133 32.9727C12.4648 32.9023 12.3464 32.7852 12.2578 32.6211C12.1719 32.4544 12.1289 32.2305 12.1289 31.9492V27.7461ZM16.1797 32.4844C16.3516 32.4844 16.5104 32.4492 16.6562 32.3789C16.8021 32.3086 16.9219 32.2122 17.0156 32.0898C17.1094 31.9648 17.1628 31.8229 17.1758 31.6641H17.8633C17.8503 31.9141 17.7656 32.1471 17.6094 32.3633C17.4557 32.5768 17.2539 32.75 17.0039 32.8828C16.7539 33.013 16.4792 33.0781 16.1797 33.0781C15.862 33.0781 15.5846 33.0221 15.3477 32.9102C15.1133 32.7982 14.918 32.6445 14.7617 32.4492C14.6081 32.2539 14.4922 32.0299 14.4141 31.7773C14.3385 31.5221 14.3008 31.2526 14.3008 30.9688V30.8047C14.3008 30.5208 14.3385 30.2526 14.4141 30C14.4922 29.7448 14.6081 29.5195 14.7617 29.3242C14.918 29.1289 15.1133 28.9753 15.3477 28.8633C15.5846 28.7513 15.862 28.6953 16.1797 28.6953C16.5104 28.6953 16.7995 28.763 17.0469 28.8984C17.2943 29.0312 17.4883 29.2135 17.6289 29.4453C17.7721 29.6745 17.8503 29.9349 17.8633 30.2266H17.1758C17.1628 30.0521 17.1133 29.8945 17.0273 29.7539C16.944 29.6133 16.8294 29.5013 16.6836 29.418C16.5404 29.332 16.3724 29.2891 16.1797 29.2891C15.9583 29.2891 15.7721 29.3333 15.6211 29.4219C15.4727 29.5078 15.3542 29.625 15.2656 29.7734C15.1797 29.9193 15.1172 30.082 15.0781 30.2617C15.0417 30.4388 15.0234 30.6198 15.0234 30.8047V30.9688C15.0234 31.1536 15.0417 31.3359 15.0781 31.5156C15.1146 31.6953 15.1758 31.8581 15.2617 32.0039C15.3503 32.1497 15.4688 32.2669 15.6172 32.3555C15.7682 32.4414 15.9557 32.4844 16.1797 32.4844ZM19.3984 27V33H18.6758V27H19.3984ZM19.2266 30.7266L18.9258 30.7148C18.9284 30.4258 18.9714 30.1589 19.0547 29.9141C19.138 29.6667 19.2552 29.4518 19.4062 29.2695C19.5573 29.0872 19.737 28.9466 19.9453 28.8477C20.1562 28.7461 20.3893 28.6953 20.6445 28.6953C20.8529 28.6953 21.0404 28.724 21.207 28.7812C21.3737 28.8359 21.5156 28.9245 21.6328 29.0469C21.7526 29.1693 21.8438 29.3281 21.9062 29.5234C21.9688 29.7161 22 29.9518 22 30.2305V33H21.2734V30.2227C21.2734 30.0013 21.2409 29.8242 21.1758 29.6914C21.1107 29.556 21.0156 29.4583 20.8906 29.3984C20.7656 29.3359 20.612 29.3047 20.4297 29.3047C20.25 29.3047 20.0859 29.3424 19.9375 29.418C19.7917 29.4935 19.6654 29.5977 19.5586 29.7305C19.4544 29.8633 19.3724 30.0156 19.3125 30.1875C19.2552 30.3568 19.2266 30.5365 19.2266 30.7266ZM23.8672 27V33H23.1406V27H23.8672ZM25.8125 28.7734V33H25.0859V28.7734H25.8125ZM25.0312 27.6523C25.0312 27.5352 25.0664 27.4362 25.1367 27.3555C25.2096 27.2747 25.3164 27.2344 25.457 27.2344C25.5951 27.2344 25.7005 27.2747 25.7734 27.3555C25.849 27.4362 25.8867 27.5352 25.8867 27.6523C25.8867 27.7643 25.849 27.8607 25.7734 27.9414C25.7005 28.0195 25.5951 28.0586 25.457 28.0586C25.3164 28.0586 25.2096 28.0195 25.1367 27.9414C25.0664 27.8607 25.0312 27.7643 25.0312 27.6523ZM29.4336 31.8789C29.4336 31.7747 29.4102 31.6784 29.3633 31.5898C29.319 31.4987 29.2266 31.4167 29.0859 31.3438C28.9479 31.2682 28.7396 31.2031 28.4609 31.1484C28.2266 31.099 28.0143 31.0404 27.8242 30.9727C27.6367 30.9049 27.4766 30.8229 27.3438 30.7266C27.2135 30.6302 27.1133 30.5169 27.043 30.3867C26.9727 30.2565 26.9375 30.1042 26.9375 29.9297C26.9375 29.763 26.974 29.6055 27.0469 29.457C27.1224 29.3086 27.2279 29.1771 27.3633 29.0625C27.5013 28.9479 27.6667 28.8581 27.8594 28.793C28.0521 28.7279 28.2669 28.6953 28.5039 28.6953C28.8424 28.6953 29.1315 28.7552 29.3711 28.875C29.6107 28.9948 29.7943 29.1549 29.9219 29.3555C30.0495 29.5534 30.1133 29.7734 30.1133 30.0156H29.3906C29.3906 29.8984 29.3555 29.7852 29.2852 29.6758C29.2174 29.5638 29.1172 29.4714 28.9844 29.3984C28.8542 29.3255 28.694 29.2891 28.5039 29.2891C28.3034 29.2891 28.1406 29.3203 28.0156 29.3828C27.8932 29.4427 27.8034 29.5195 27.7461 29.6133C27.6914 29.707 27.6641 29.806 27.6641 29.9102C27.6641 29.9883 27.6771 30.0586 27.7031 30.1211C27.7318 30.181 27.7812 30.237 27.8516 30.2891C27.9219 30.3385 28.0208 30.3854 28.1484 30.4297C28.276 30.474 28.4388 30.5182 28.6367 30.5625C28.9831 30.6406 29.2682 30.7344 29.4922 30.8438C29.7161 30.9531 29.8828 31.0872 29.9922 31.2461C30.1016 31.4049 30.1562 31.5977 30.1562 31.8242C30.1562 32.0091 30.1172 32.1784 30.0391 32.332C29.9635 32.4857 29.8529 32.6185 29.707 32.7305C29.5638 32.8398 29.3919 32.9258 29.1914 32.9883C28.9935 33.0482 28.7708 33.0781 28.5234 33.0781C28.151 33.0781 27.8359 33.0117 27.5781 32.8789C27.3203 32.7461 27.125 32.5742 26.9922 32.3633C26.8594 32.1523 26.793 31.9297 26.793 31.6953H27.5195C27.5299 31.8932 27.5872 32.0508 27.6914 32.168C27.7956 32.2826 27.9232 32.3646 28.0742 32.4141C28.2253 32.4609 28.375 32.4844 28.5234 32.4844C28.7214 32.4844 28.8867 32.4583 29.0195 32.4062C29.1549 32.3542 29.2578 32.2826 29.3281 32.1914C29.3984 32.1003 29.4336 31.9961 29.4336 31.8789ZM32.875 28.7734V29.3281H30.5898V28.7734H32.875ZM31.3633 27.7461H32.0859V31.9531C32.0859 32.0964 32.1081 32.2044 32.1523 32.2773C32.1966 32.3503 32.2539 32.3984 32.3242 32.4219C32.3945 32.4453 32.4701 32.457 32.5508 32.457C32.6107 32.457 32.6732 32.4518 32.7383 32.4414C32.806 32.4284 32.8568 32.418 32.8906 32.4102L32.8945 33C32.8372 33.0182 32.7617 33.0352 32.668 33.0508C32.5768 33.069 32.4661 33.0781 32.3359 33.0781C32.1589 33.0781 31.9961 33.043 31.8477 32.9727C31.6992 32.9023 31.5807 32.7852 31.4922 32.6211C31.4062 32.4544 31.3633 32.2305 31.3633 31.9492V27.7461Z" fill="#F9F9F9"/>
</svg>
