<svg width="46" height="46" viewBox="0 0 46 46" fill="none" xmlns="http://www.w3.org/2000/svg">
<g clip-path="url(#clip0_2343_19)">
<path d="M23 46C35.7025 46 46 35.7025 46 23C46 10.2975 35.7025 0 23 0C10.2975 0 0 10.2975 0 23C0 35.7025 10.2975 46 23 46Z" fill="black"/>
<path fill-rule="evenodd" clip-rule="evenodd" d="M25.5392 36.938V24.3892H29.348L29.9644 18.814H25.5392V16.1C25.5392 14.6648 25.5392 13.2388 27.5816 13.2388H29.6148V9.25521C28.4498 9.10256 27.275 9.03798 26.1004 9.06202C22.4204 9.06202 20.102 11.3712 20.102 15.6124V18.814H16.0356V24.3892H20.0928V36.938H25.5392Z" fill="white"/>
</g>
<defs>
<clipPath id="clip0_2343_19">
<rect width="46" height="46" fill="white"/>
</clipPath>
</defs>
</svg>
