<svg width="342" height="46" viewBox="0 0 342 46" fill="none" xmlns="http://www.w3.org/2000/svg">
<path d="M23.67 34.24C23.67 33.28 23.52 32.44 23.23 31.71C22.96 30.96 22.46 30.29 21.75 29.69C21.06 29.09 20.09 28.52 18.84 27.98C17.62 27.44 16.06 26.88 14.18 26.32C12.21 25.72 10.42 25.06 8.84 24.32C7.25 23.57 5.89 22.72 4.76 21.76C3.63 20.8 2.76 19.71 2.16 18.47C1.56 17.23 1.26 15.82 1.26 14.23C1.26 12.64 1.58001 11.17 2.22001 9.81998C2.86001 8.46998 3.77 7.29997 4.96 6.30997C6.17 5.29997 7.6 4.50998 9.26 3.94998C10.92 3.38998 12.78 3.10999 14.82 3.10999C17.82 3.10999 20.36 3.69997 22.44 4.87997C24.54 6.03997 26.14 7.56996 27.24 9.45996C28.34 11.33 28.88 13.34 28.88 15.48H23.62C23.62 13.94 23.3 12.58 22.66 11.4C22.02 10.2 21.05 9.25997 19.75 8.58997C18.45 7.89997 16.81 7.54999 14.82 7.54999C12.94 7.54999 11.38 7.83998 10.16 8.41998C8.94 8.99998 8.02001 9.78997 7.42001 10.78C6.84001 11.77 6.54 12.91 6.54 14.18C6.54 15.04 6.71001 15.83 7.06001 16.54C7.43001 17.23 7.98 17.88 8.73 18.48C9.5 19.08 10.47 19.63 11.64 20.14C12.83 20.65 14.24 21.13 15.89 21.6C18.16 22.26 20.11 22.99 21.76 23.79C23.4 24.6 24.76 25.5 25.82 26.52C26.9 27.51 27.69 28.65 28.2 29.92C28.73 31.18 28.99 32.6 28.99 34.19C28.99 35.86 28.66 37.37 28 38.72C27.34 40.07 26.4 41.22 25.18 42.18C23.96 43.14 22.48 43.88 20.77 44.4C19.07 44.91 17.17 45.16 15.07 45.16C13.22 45.16 11.41 44.9 9.62 44.37C7.85 43.85 6.23 43.06 4.77 42.01C3.33 40.96 2.17 39.67 1.29 38.13C0.430001 36.57 0 34.78 0 32.73H5.26C5.26 34.14 5.52 35.34 6.05 36.36C6.58 37.35 7.30001 38.18 8.22001 38.83C9.15001 39.49 10.2 39.97 11.37 40.29C12.56 40.59 13.79 40.74 15.07 40.74C16.92 40.74 18.48 40.48 19.76 39.95C21.04 39.43 22.01 38.68 22.67 37.7C23.33 36.73 23.67 35.57 23.67 34.24Z" fill="white"/>
<path d="M50.47 3.66003V44.59H45.26V3.66003H50.47ZM63.3 3.66003V8.10004H32.46V3.66003H63.3Z" fill="white"/>
<path d="M69.22 3.66003H82.43C85.43 3.66003 87.96 4.13004 90.02 5.07004C92.1 6.01004 93.68 7.39004 94.76 9.23004C95.86 11.05 96.4 13.29 96.4 15.95C96.4 17.82 96.03 19.54 95.28 21.09C94.55 22.63 93.49 23.94 92.1 25.03C90.73 26.1 89.08 26.89 87.17 27.42L85.69 28.01H73.27L73.22 23.6H82.59C84.49 23.6 86.07 23.26 87.33 22.59C88.59 21.9 89.54 20.97 90.18 19.81C90.82 18.65 91.14 17.36 91.14 15.96C91.14 14.39 90.84 13.01 90.24 11.83C89.64 10.65 88.69 9.74004 87.39 9.10004C86.11 8.44004 84.46 8.12003 82.43 8.12003H74.51V44.6H69.22V3.66003ZM92.55 44.59L82.85 26.04L88.36 26.01L98.2 44.25V44.59H92.55Z" fill="white"/>
<path d="M129.16 40.17V44.58H108.03V40.17H129.16ZM109.1 3.66003V44.59H103.81V3.66003H109.1ZM126.37 21.26V25.67H108.03V21.26H126.37ZM128.89 3.66003V8.10004H108.03V3.66003H128.89Z" fill="white"/>
<path d="M150.49 7.29004L137.28 44.59H131.88L147.09 3.66003H150.57L150.49 7.29004ZM161.56 44.59L148.32 7.29004L148.24 3.66003H151.72L166.99 44.59H161.56ZM160.88 29.44V33.88H138.46V29.44H160.88Z" fill="white"/>
<path d="M174.01 3.66003H179.14L192.21 37.0201L205.26 3.66003H210.41L194.18 44.59H190.18L174.01 3.66003ZM172.33 3.66003H176.85L177.59 28.62V44.59H172.33V3.66003ZM207.53 3.66003H212.05V44.59H206.79V28.62L207.53 3.66003Z" fill="white"/>
<path d="M249.49 25.45H239.38L239.33 21.09H248.51C250.03 21.09 251.35 20.83 252.48 20.3C253.61 19.78 254.49 19.03 255.11 18.05C255.75 17.06 256.07 15.88 256.07 14.51C256.07 13.01 255.79 11.79 255.22 10.86C254.67 9.90005 253.82 9.21003 252.67 8.78003C251.54 8.33003 250.09 8.11005 248.34 8.11005H240.56V44.59H235.27V3.66003H248.34C250.39 3.66003 252.21 3.88003 253.82 4.31003C255.43 4.72003 256.79 5.38003 257.9 6.28003C259.03 7.16003 259.89 8.29002 260.48 9.65002C261.07 11.02 261.36 12.66 261.36 14.57C261.36 16.26 260.94 17.78 260.1 19.15C259.26 20.5 258.09 21.6 256.59 22.47C255.11 23.33 253.37 23.88 251.38 24.13L249.49 25.45ZM249.24 44.59H237.29L240.28 40.18H249.24C250.92 40.18 252.35 39.88 253.52 39.28C254.71 38.68 255.61 37.84 256.23 36.75C256.85 35.64 257.16 34.34 257.16 32.84C257.16 31.32 256.9 30.01 256.37 28.9C255.84 27.79 255.01 26.94 253.88 26.34C252.75 25.74 251.29 25.44 249.49 25.44H241.95L242 21.08H252.31L253.43 22.65C255.35 22.82 256.97 23.38 258.31 24.34C259.64 25.28 260.66 26.48 261.35 27.94C262.06 29.4 262.42 31.01 262.42 32.7701C262.42 35.32 261.87 37.47 260.78 39.23C259.7 40.97 258.18 42.3 256.2 43.22C254.23 44.14 251.91 44.59 249.24 44.59Z" fill="white"/>
<path d="M315.44 3.66003L325.03 19.34L334.62 3.66003H340.79L328.18 23.93L341.09 44.59H334.87L325.03 28.6L315.19 44.59H308.97L321.88 23.93L309.27 3.66003H315.44Z" fill="white"/>
<path d="M287.07 40.36C301.36 39.27 312.54 33.95 308.34 22.01C304.98 12.45 298.82 0 287.07 0C275.32 0 266.9 11.94 265.8 22.01C264.39 34.94 273.81 41.37 287.07 40.36Z" fill="#1D2656"/>
<path d="M296.82 22.22L281.32 13.05H281.31V31.4H281.32L296.82 22.23C296.83 22.23 296.82 22.22 296.82 22.22Z" fill="#FCEE21"/>
<path d="M287.12 37.88C289.53 37.68 291.93 37.35 294.29 36.81C296.64 36.27 298.97 35.51 301.07 34.31C303.16 33.13 305.03 31.39 305.91 29.14C306.82 26.89 306.6 24.34 305.81 22.08C304.24 17.52 302.25 13.03 299.29 9.20998C297.8 7.31998 296.04 5.60999 293.95 4.39999C291.87 3.18999 289.47 2.56001 287.06 2.58001C284.65 2.58001 282.26 3.20999 280.12 4.30999C277.98 5.40999 276.09 6.96001 274.49 8.77001C271.32 12.39 269.18 16.95 268.59 21.72C268.33 24.11 268.43 26.56 269.19 28.85C269.34 29.43 269.65 29.96 269.88 30.51C270.15 31.05 270.5 31.54 270.8 32.06C271.19 32.52 271.54 33.01 271.97 33.43C272.43 33.82 272.82 34.29 273.33 34.62C275.25 36.08 277.55 36.98 279.91 37.47C282.27 37.95 284.71 38.04 287.12 37.88ZM287.12 37.91C284.71 38.09 282.26 38.01 279.89 37.54C277.52 37.07 275.2 36.18 273.25 34.72C272.74 34.39 272.33 33.92 271.87 33.53C271.44 33.1 271.08 32.61 270.68 32.15C270.37 31.63 270.01 31.13 269.73 30.59C269.5 30.03 269.18 29.5 269.02 28.91C268.23 26.6 268.1 24.11 268.35 21.69C268.96 16.85 271.12 12.26 274.33 8.61999C275.94 6.79999 277.86 5.23999 280.03 4.11999C282.2 3.00999 284.62 2.38 287.06 2.38C289.5 2.37 291.94 3.00999 294.04 4.24999C296.15 5.47999 297.92 7.20999 299.41 9.11999C302.38 12.97 304.36 17.48 305.93 22.05C306.72 24.33 306.94 26.91 306.01 29.19C305.11 31.47 303.22 33.22 301.11 34.39C298.99 35.58 296.66 36.33 294.3 36.87C291.94 37.39 289.53 37.71 287.12 37.91Z" fill="#FFF200"/>
<path d="M305.9 23.6499C306.541 23.6499 307.06 23.1306 307.06 22.4899C307.06 21.8493 306.541 21.33 305.9 21.33C305.259 21.33 304.74 21.8493 304.74 22.4899C304.74 23.1306 305.259 23.6499 305.9 23.6499Z" fill="#FCEE21"/>
<path d="M286.91 38.99C287.551 38.99 288.07 38.4707 288.07 37.83C288.07 37.1894 287.551 36.67 286.91 36.67C286.269 36.67 285.75 37.1894 285.75 37.83C285.75 38.4707 286.269 38.99 286.91 38.99Z" fill="#FCEE21"/>
<path d="M271.18 14.7501C271.821 14.7501 272.34 14.2307 272.34 13.5901C272.34 12.9494 271.821 12.4301 271.18 12.4301C270.539 12.4301 270.02 12.9494 270.02 13.5901C270.02 14.2307 270.539 14.7501 271.18 14.7501Z" fill="#FCEE21"/>
</svg>
