<svg width="50" height="49" viewBox="0 0 50 49" fill="none" xmlns="http://www.w3.org/2000/svg">
<path d="M0 48.4848C0 34.1185 11.1925 22.4731 25 22.4731C38.8075 22.4731 50 34.1185 50 48.4848" fill="#1D2656"/>
<path d="M25.0005 27.4401C31.9125 27.4401 37.5158 21.61 37.5158 14.4182C37.5158 7.22642 31.9125 1.39633 25.0005 1.39633C18.0884 1.39633 12.4851 7.22642 12.4851 14.4182C12.4851 21.61 18.0884 27.4401 25.0005 27.4401Z" fill="#1D2656"/>
<path d="M25.0007 28.8364C17.3588 28.8364 11.1433 22.3694 11.1433 14.4182C11.1433 6.46705 17.3588 0 25.0007 0C32.6425 0 38.858 6.46705 38.858 14.4182C38.858 22.3654 32.6387 28.8364 25.0007 28.8364ZM25.0007 2.79268C18.8389 2.79268 13.8274 8.00701 13.8274 14.4182C13.8274 20.8294 18.8389 26.0437 25.0007 26.0437C31.1625 26.0437 36.174 20.8294 36.174 14.4182C36.174 8.00701 31.1587 2.79268 25.0007 2.79268Z" fill="#D9D9D9"/>
</svg>
