<svg width="40" height="40" viewBox="0 0 40 40" fill="none" xmlns="http://www.w3.org/2000/svg">
<circle cx="20" cy="20" r="20" fill="#1D2656"/>
<path d="M20 23.3138C18.8536 23.3138 17.8792 22.9272 17.0767 22.154C16.2742 21.3808 15.873 20.4418 15.873 19.3372V11.384C15.873 10.2794 16.2742 9.34047 17.0767 8.56724C17.8792 7.79401 18.8536 7.40739 20 7.40739C21.1464 7.40739 22.1208 7.79401 22.9233 8.56724C23.7257 9.34047 24.127 10.2794 24.127 11.384V19.3372C24.127 20.4418 23.7257 21.3808 22.9233 22.154C22.1208 22.9272 21.1464 23.3138 20 23.3138ZM18.6243 32.5926V28.5166C16.2399 28.2073 14.2681 27.18 12.709 25.4347C11.1499 23.6894 10.3704 21.6569 10.3704 19.3372H13.1217C13.1217 21.1709 13.7923 22.7339 15.1336 24.0263C16.4749 25.3187 18.097 25.9649 20 25.9649C21.903 25.9649 23.5251 25.3187 24.8664 24.0263C26.2077 22.7339 26.8783 21.1709 26.8783 19.3372H29.6296C29.6296 21.6569 28.8501 23.6894 27.291 25.4347C25.7319 27.18 23.7601 28.2073 21.3757 28.5166V32.5926H18.6243Z" fill="white"/>
</svg>
